# ProBuilder 4.2.3
# https://unity3d.com/unity/features/worldbuilding/probuilder
# 21-08-2020 23:08:02

mtllib ./AttackSpd__Upgrade.mtl
o AttackSpd  Upgrade

g AttackSpd  Upgrade
v 0 0.0625 0
v 0 0.0625 0.25
v 0.0625 0.0625 0.25
v 0.0625 0.0625 0.0625
v 0.125 0.0625 0.0625
v 0.125 0.0625 0
v 0.0625 0 0.0625
v 0.0625 0 0.25
v 0 0 0.25
v 0 0 0
v 0.125 0 0
v 0.125 0 0.0625
v 0.6875 0.06250006 0.6875001
v 0.6875 0.06250012 0.7500001
v 0.75 0.06250012 0.7500001
v 0.75 0.06250006 0.6875001
v 0.6875 5.960464E-08 0.6875001
v 0.75 5.960464E-08 0.6875001
v 0.75 1.192093E-07 0.7500001
v 0.6875 1.192093E-07 0.7500001
v 0.25 0.06250006 0.25
v 0.25 0.06250003 0.3125
v 0.3125 0.06250003 0.3125
v 0.3125 0.06250006 0.25
v 0.25 2.980232E-08 0.25
v 0.3125 2.980232E-08 0.25
v 0.3125 2.980232E-08 0.3125
v 0.25 2.980232E-08 0.3125
v 0.4375 0.06250006 0.4375001
v 0.4375 0.06250006 0.5000001
v 0.5 0.06250006 0.5000001
v 0.5 0.06250006 0.4375001
v 0.4375 5.960464E-08 0.4375001
v 0.5 5.960464E-08 0.4375001
v 0.5 5.960464E-08 0.5000001
v 0.4375 5.960464E-08 0.5000001
v 0.5625 0.06250006 0.5625001
v 0.5625 0.06250006 0.6250001
v 0.625 0.06250006 0.6250001
v 0.625 0.06250006 0.5625001
v 0.5625 5.960464E-08 0.5625001
v 0.625 5.960464E-08 0.5625001
v 0.625 5.960464E-08 0.6250001
v 0.5625 5.960464E-08 0.6250001
v 0.125 0.06250003 0.125
v 0.125 0.06250003 0.1875
v 0.1875 0.06250003 0.1875
v 0.1875 0.06250003 0.125
v 0.125 1.490116E-08 0.125
v 0.1875 1.490116E-08 0.125
v 0.1875 1.490116E-08 0.1875
v 0.125 1.490116E-08 0.1875
v 0.625 0.06250006 0.6875001
v 0.6875 0.06250006 0.6250001
v 0.6875 5.960464E-08 0.6250001
v 0.625 5.960464E-08 0.6875001
v 0.5 0.06250006 0.5625001
v 0.5625 0.06250006 0.5000001
v 0.5625 5.960464E-08 0.5000001
v 0.5 5.960464E-08 0.5625001
v 0.375 0.06250006 0.3750001
v 0.375 0.06250006 0.4375001
v 0.4375 0.06250006 0.3750001
v 0.375 5.960464E-08 0.3750001
v 0.4375 5.960464E-08 0.3750001
v 0.375 5.960464E-08 0.4375001
v 0 0.06250006 0.3125
v 0 0.06250006 0.3750001
v 0.125 0.06250006 0.3750001
v 0.125 0.06250006 0.3125
v 0 2.980232E-08 0.3125
v 0.125 2.980232E-08 0.3125
v 0.125 5.960464E-08 0.3750001
v 0 5.960464E-08 0.3750001
v 0.1875 0.06250003 0.25
v 0.25 0.06250006 0.1875
v 0.25 2.980232E-08 0.1875
v 0.1875 2.980232E-08 0.25
v 0.5 0.06250012 0.7500001
v 0.5 0.06250012 0.8750001
v 0.5625 0.06250012 0.8750001
v 0.5625 0.06250012 0.7500001
v 0.5 1.192093E-07 0.7500001
v 0.5625 1.192093E-07 0.7500001
v 0.5625 1.192093E-07 0.8750001
v 0.5 1.192093E-07 0.8750001
v 0.625 0.06250012 0.8125001
v 0.625 0.06250012 0.8750001
v 0.875 0.06250012 0.8750001
v 0.875 0.06250012 0.7500001
v 0.8125 0.06250012 0.7500001
v 0.8125 0.06250012 0.8125001
v 0.8125 1.192093E-07 0.8125001
v 0.8125 1.192093E-07 0.7500001
v 0.875 1.192093E-07 0.7500001
v 0.875 1.192093E-07 0.8750001
v 0.625 1.192093E-07 0.8750001
v 0.625 1.192093E-07 0.8125001
v 0.0625 0.06250006 0.4375001
v 0.0625 0.06250006 0.5625001
v 0.125 0.06250006 0.5625001
v 0.125 0.06250006 0.6875
v 0.1875 0.06250006 0.6875
v 0.1875 0.06250012 0.7500001
v 0.3125 0.06250012 0.7500001
v 0.3125 0.06250006 0.8125001
v 0.4375 0.06250006 0.8125001
v 0.4375 0.06250012 0.7500001
v 0.375 0.06250012 0.7500001
v 0.375 0.06250006 0.6875
v 0.25 0.06250006 0.6875
v 0.25 0.06250006 0.625
v 0.1875 0.06250006 0.625
v 0.1875 0.06250006 0.5000001
v 0.125 0.06250006 0.5000001
v 0.125 0.06250006 0.4375001
v 0.375 5.960464E-08 0.7500001
v 0.4375 5.960464E-08 0.7500001
v 0.4375 5.960464E-08 0.8125001
v 0.1875 0 0.6250001
v 0.25 0 0.6250001
v 0.25 0 0.6875001
v 0.0625 5.960464E-08 0.4375001
v 0.125 5.960464E-08 0.4375001
v 0.125 5.960464E-08 0.5000001
v 0.0625 5.960464E-08 0.5625001
v 0.125 5.960464E-08 0.5625001
v 0.1875 5.960464E-08 0.5000001
v 0.125 0 0.6875001
v 0.1875 0 0.6875001
v 0.1875 5.960464E-08 0.7500001
v 0.3125 5.960464E-08 0.7500001
v 0.375 0 0.6875001
v 0.3125 5.960464E-08 0.8125001
v 0.3125 0.06250006 0.3125
v 0.3125 0.06250006 0.3750001
v 0.375 0.06250006 0.3125
v 0.375 2.980232E-08 0.3125
v 0.3125 5.960464E-08 0.3750001

vt 0 0
vt 0 0.25
vt -0.0625 0.25
vt -0.0625 0.0625
vt -0.125 0.0625
vt -0.125 0
vt 0.0625 0.0625
vt 0.0625 0.25
vt 0.125 0
vt 0.125 0.0625
vt -0.0625 0
vt -0.25 0
vt -0.25 0.0625
vt 0.0625 0
vt 0 0.0625
vt 0.25 0
vt 0.25 0.0625
vt 0 0.125
vt -0.0625 0.125
vt 0.0625 0.125
vt -0.25 -0.0625
vt -0.1875 -0.0625
vt -0.1875 0
vt 0.1875 0
vt 0.1875 -0.0625
vt 0.25 -0.0625
vt -0.1875 0.0625
vt 0 0.1249999
vt -0.0625 0.1249999
vt -0.0625 0.2499999
vt -0.125 0.2499999
vt -0.125 0.3125
vt -0.25 0.3125
vt -0.25 0.375
vt -0.375 0.375
vt -0.375 0.3125
vt -0.3125 0.3125
vt -0.3125 0.2499999
vt -0.1875 0.2499999
vt -0.1875 0.1874999
vt -0.125 0.1874999
vt 0.3125 0.3125
vt 0.375 0.3125
vt 0.375 0.375
vt 0.125 0.1875
vt 0.1875 0.1875
vt 0.1875 0.25
vt 0.0625 0.1249999
vt 0.125 0.25
vt 0.125 0.3125
vt 0.25 0.3125
vt 0.3125 0.25
vt 0.25 0.375
vt -0.3125 0
vt -0.375 0
vt -0.3125 0.0625
vt -0.375 0.0625
vt -0.2499999 0.0625
vt -0.1874999 0.0625
vt 0.2499999 0.0625
vt 0.125 0.06250003
vt 0.3125 5.960464E-08
vt 0.3125 0.0625
vt 0.375 0
vt 0.375 0.06249994

vn 0 1 0
vn 0 -1 0
vn 1 0 0
vn 0 0 1
vn -1 0 0
vn 0 0 -1

usemtl ProBuilderDefault
f 2/2/1 3/3/1 4/4/1
f 2/2/1 4/4/1 1/1/1
f 1/1/1 4/4/1 6/6/1
f 4/4/1 5/5/1 6/6/1
f 11/9/2 12/10/2 7/7/2
f 11/9/2 7/7/2 10/1/2
f 10/1/2 7/7/2 9/2/2
f 7/7/2 8/8/2 9/2/2
f 90/21/1 91/22/1 92/23/1
f 89/13/1 90/21/1 92/23/1
f 92/23/1 87/1/1 88/15/1
f 89/13/1 92/23/1 88/15/1
f 97/15/2 93/24/2 96/17/2
f 97/15/2 98/1/2 93/24/2
f 93/24/2 95/26/2 96/17/2
f 93/24/2 94/25/2 95/26/2
f 107/35/1 108/36/1 109/37/1
f 111/39/1 112/40/1 113/41/1
f 115/4/1 116/11/1 99/1/1
f 100/28/1 115/4/1 99/1/1
f 100/28/1 101/29/1 115/4/1
f 114/5/1 115/4/1 101/29/1
f 101/29/1 113/41/1 114/5/1
f 102/30/1 113/41/1 101/29/1
f 102/30/1 103/31/1 113/41/1
f 111/39/1 113/41/1 103/31/1
f 111/39/1 103/31/1 104/32/1
f 105/33/1 111/39/1 104/32/1
f 111/39/1 105/33/1 110/38/1
f 105/33/1 109/37/1 110/38/1
f 109/37/1 105/33/1 106/34/1
f 107/35/1 109/37/1 106/34/1
f 134/53/2 117/42/2 119/44/2
f 134/53/2 132/51/2 117/42/2
f 133/52/2 117/42/2 132/51/2
f 133/52/2 132/51/2 122/47/2
f 131/50/2 122/47/2 132/51/2
f 131/50/2 130/49/2 122/47/2
f 130/49/2 120/45/2 122/47/2
f 120/45/2 130/49/2 129/8/2
f 127/48/2 120/45/2 129/8/2
f 128/10/2 120/45/2 127/48/2
f 127/48/2 125/7/2 128/10/2
f 125/7/2 127/48/2 126/28/2
f 123/1/2 125/7/2 126/28/2
f 123/1/2 124/14/2 125/7/2
f 120/45/2 121/46/2 122/47/2
f 117/42/2 118/43/2 119/44/2
f 3/13/3 8/12/3 7/11/3
f 7/11/3 4/4/3 3/13/3
f 2/15/4 9/1/4 8/14/4
f 8/14/4 3/7/4 2/15/4
f 1/15/5 10/1/5 9/16/5
f 9/16/5 2/17/5 1/15/5
f 6/5/6 11/6/6 10/1/6
f 10/1/6 1/15/6 6/5/6
f 5/4/3 12/11/3 11/1/3
f 11/1/3 6/15/3 5/4/3
f 4/7/4 7/14/4 12/9/4
f 12/9/4 5/10/4 4/7/4
f 15/4/1 16/11/1 13/1/1
f 13/1/1 14/15/1 15/4/1
f 19/7/2 20/15/2 17/1/2
f 17/1/2 18/14/2 19/7/2
f 16/4/6 18/11/6 17/1/6
f 17/1/6 13/15/6 16/4/6
f 15/4/3 19/11/3 18/1/3
f 18/1/3 16/15/3 15/4/3
f 13/15/5 17/1/5 20/14/5
f 20/14/5 14/7/5 13/15/5
f 14/15/4 20/1/4 19/14/4
f 19/14/4 15/7/4 14/15/4
f 23/4/1 24/11/1 21/1/1
f 21/1/1 22/15/1 23/4/1
f 27/7/2 28/15/2 25/1/2
f 25/1/2 26/14/2 27/7/2
f 24/4/6 26/11/6 25/1/6
f 25/1/6 21/15/6 24/4/6
f 23/4/3 27/11/3 26/1/3
f 26/1/3 24/15/3 23/4/3
f 21/15/5 25/1/5 28/14/5
f 28/14/5 22/7/5 21/15/5
f 22/15/4 28/1/4 27/14/4
f 27/14/4 23/7/4 22/15/4
f 31/4/1 32/11/1 29/1/1
f 29/1/1 30/15/1 31/4/1
f 35/7/2 36/15/2 33/1/2
f 33/1/2 34/14/2 35/7/2
f 32/4/6 34/11/6 33/1/6
f 33/1/6 29/15/6 32/4/6
f 31/4/3 35/11/3 34/1/3
f 34/1/3 32/15/3 31/4/3
f 29/15/5 33/1/5 36/14/5
f 36/14/5 30/7/5 29/15/5
f 30/15/4 36/1/4 35/14/4
f 35/14/4 31/7/4 30/15/4
f 39/4/1 40/11/1 37/1/1
f 37/1/1 38/15/1 39/4/1
f 43/7/2 44/15/2 41/1/2
f 41/1/2 42/14/2 43/7/2
f 40/4/6 42/11/6 41/1/6
f 41/1/6 37/15/6 40/4/6
f 39/4/3 43/11/3 42/1/3
f 42/1/3 40/15/3 39/4/3
f 37/15/5 41/1/5 44/14/5
f 44/14/5 38/7/5 37/15/5
f 38/15/4 44/1/4 43/14/4
f 43/14/4 39/7/4 38/15/4
f 47/4/1 48/11/1 45/1/1
f 45/1/1 46/15/1 47/4/1
f 51/7/2 52/15/2 49/1/2
f 49/1/2 50/14/2 51/7/2
f 48/4/6 50/11/6 49/1/6
f 49/1/6 45/15/6 48/4/6
f 47/4/3 51/11/3 50/1/3
f 50/1/3 48/15/3 47/4/3
f 45/15/5 49/1/5 52/14/5
f 52/14/5 46/7/5 45/15/5
f 46/15/4 52/1/4 51/14/4
f 51/14/4 47/7/4 46/15/4
f 13/4/1 54/11/1 39/1/1
f 39/1/1 53/15/1 13/4/1
f 17/7/2 56/15/2 43/1/2
f 43/1/2 55/14/2 17/7/2
f 54/4/6 55/11/6 43/1/6
f 43/1/6 39/15/6 54/4/6
f 13/4/3 17/11/3 55/1/3
f 55/1/3 54/15/3 13/4/3
f 39/15/5 43/1/5 56/14/5
f 56/14/5 53/7/5 39/15/5
f 53/15/4 56/1/4 17/14/4
f 17/14/4 13/7/4 53/15/4
f 37/4/1 58/11/1 31/1/1
f 31/1/1 57/15/1 37/4/1
f 41/7/2 60/15/2 35/1/2
f 35/1/2 59/14/2 41/7/2
f 58/4/6 59/11/6 35/1/6
f 35/1/6 31/15/6 58/4/6
f 37/4/3 41/11/3 59/1/3
f 59/1/3 58/15/3 37/4/3
f 31/15/5 35/1/5 60/14/5
f 60/14/5 57/7/5 31/15/5
f 57/15/4 60/1/4 41/14/4
f 41/14/4 37/7/4 57/15/4
f 29/4/1 63/11/1 61/1/1
f 61/1/1 62/15/1 29/4/1
f 33/7/2 66/15/2 64/1/2
f 64/1/2 65/14/2 33/7/2
f 63/4/6 65/11/6 64/1/6
f 64/1/6 61/15/6 63/4/6
f 29/4/3 33/11/3 65/1/3
f 65/1/3 63/15/3 29/4/3
f 61/15/5 64/1/5 66/14/5
f 66/14/5 62/7/5 61/15/5
f 62/15/4 66/1/4 33/14/4
f 33/14/4 29/7/4 62/15/4
f 69/5/1 70/6/1 67/1/1
f 67/1/1 68/15/1 69/5/1
f 73/10/2 74/15/2 71/1/2
f 71/1/2 72/9/2 73/10/2
f 70/5/6 72/6/6 71/1/6
f 71/1/6 67/15/6 70/5/6
f 69/4/3 73/11/3 72/1/3
f 72/1/3 70/15/3 69/4/3
f 67/15/5 71/1/5 74/14/5
f 74/14/5 68/7/5 67/15/5
f 68/15/4 74/1/4 73/9/4
f 73/9/4 69/10/4 68/15/4
f 21/4/1 76/11/1 47/1/1
f 47/1/1 75/15/1 21/4/1
f 25/7/2 78/15/2 51/1/2
f 51/1/2 77/14/2 25/7/2
f 76/4/6 77/11/6 51/1/6
f 51/1/6 47/15/6 76/4/6
f 21/4/3 25/11/3 77/1/3
f 77/1/3 76/15/3 21/4/3
f 47/15/5 51/1/5 78/14/5
f 78/14/5 75/7/5 47/15/5
f 75/15/4 78/1/4 25/14/4
f 25/14/4 21/7/4 75/15/4
f 81/19/1 82/11/1 79/1/1
f 79/1/1 80/18/1 81/19/1
f 85/20/2 86/18/2 83/1/2
f 83/1/2 84/14/2 85/20/2
f 82/4/6 84/11/6 83/1/6
f 83/1/6 79/15/6 82/4/6
f 81/5/3 85/6/3 84/1/3
f 84/1/3 82/15/3 81/5/3
f 79/15/5 83/1/5 86/9/5
f 86/9/5 80/10/5 79/15/5
f 80/15/4 86/1/4 85/14/4
f 85/14/4 81/7/4 80/15/4
f 91/4/5 94/11/5 93/1/5
f 93/1/5 92/15/5 91/4/5
f 90/13/6 95/12/6 94/23/6
f 94/23/6 91/27/6 90/13/6
f 89/4/3 96/11/3 95/14/3
f 95/14/3 90/7/3 89/4/3
f 87/15/5 98/1/5 97/14/5
f 97/14/5 88/7/5 87/15/5
f 92/27/6 93/23/6 98/1/6
f 98/1/6 87/15/6 92/27/6
f 88/15/4 97/1/4 96/16/4
f 96/16/4 89/17/4 88/15/4
f 108/57/6 118/55/6 117/54/6
f 117/54/6 109/56/6 108/57/6
f 107/57/3 119/55/3 118/54/3
f 118/54/3 108/56/3 107/57/3
f 112/27/6 121/23/6 120/6/6
f 120/6/6 113/5/6 112/27/6
f 111/58/3 122/12/3 121/23/3
f 121/23/3 112/27/3 111/58/3
f 116/4/6 124/11/6 123/1/6
f 123/1/6 99/15/6 116/4/6
f 115/4/3 125/11/3 124/1/3
f 124/1/3 116/15/3 115/4/3
f 99/15/5 123/1/5 126/9/5
f 126/9/5 100/10/5 99/15/5
f 100/15/4 126/1/4 127/14/4
f 127/14/4 101/7/4 100/15/4
f 114/5/6 128/6/6 125/11/6
f 125/11/6 115/4/6 114/5/6
f 113/59/3 120/23/3 128/11/3
f 128/11/3 114/4/3 113/59/3
f 101/61/5 127/9/5 129/16/5
f 129/16/5 102/60/5 101/61/5
f 102/7/4 129/14/4 130/9/4
f 130/9/4 103/10/4 102/7/4
f 103/17/5 130/16/5 131/62/5
f 131/62/5 104/63/5 103/17/5
f 104/10/4 131/9/4 132/16/4
f 132/16/4 105/17/4 104/10/4
f 110/56/6 133/54/6 122/23/6
f 122/23/6 111/27/6 110/56/6
f 109/56/3 117/54/3 133/12/3
f 133/12/3 110/13/3 109/56/3
f 105/63/5 132/62/5 134/64/5
f 134/64/5 106/65/5 105/63/5
f 106/17/4 134/16/4 119/64/4
f 119/64/4 107/65/4 106/17/4
f 61/4/1 137/11/1 135/1/1
f 135/1/1 136/15/1 61/4/1
f 64/7/2 139/15/2 27/1/2
f 27/1/2 138/14/2 64/7/2
f 137/4/6 138/11/6 27/1/6
f 27/1/6 135/15/6 137/4/6
f 61/4/3 64/11/3 138/1/3
f 138/1/3 137/15/3 61/4/3
f 135/15/5 27/1/5 139/14/5
f 139/14/5 136/7/5 135/15/5
f 136/15/4 139/1/4 64/14/4
f 64/14/4 61/7/4 136/15/4

