# ProBuilder 4.2.3
# https://unity3d.com/unity/features/worldbuilding/probuilder
# 21-08-2020 23:01:03

mtllib ./DamageUpgrade.mtl
o DamageUpgrade

g DamageUpgrade
v 0 0.0625 0
v -0.125 0.0625 0
v -0.125 0.0625 -0.0625
v -0.1875 0.0625 -0.0625
v -0.1875 0.0625 -0.125
v -0.25 0.0625 -0.125
v -0.25 0.0625 -0.1875
v -0.3125 0.0625 -0.1875
v -0.3125 0.0625 -0.25
v -0.375 0.0625 -0.25
v -0.375 0.0625 -0.3125
v -0.25 0.0625 -0.3125
v -0.25 0.0625 -0.25
v -0.1875 0.0625 -0.25
v -0.1875 0.0625 -0.1875
v -0.125 0.0625 -0.1875
v -0.125 0.0625 -0.125
v -0.0625 0.0625 -0.125
v -0.0625 0.0625 -0.0625
v 0 0.0625 -0.0625
v -0.0625 0 -0.0625
v 0 0 -0.0625
v 0 0 0
v -0.125 0 -0.125
v -0.0625 0 -0.125
v -0.1875 0 -0.0625
v -0.1875 0 -0.125
v -0.125 0 -0.0625
v -0.1875 0 -0.1875
v -0.125 0 -0.1875
v -0.25 0 -0.125
v -0.25 0 -0.1875
v -0.25 0 -0.25
v -0.1875 0 -0.25
v -0.3125 0 -0.1875
v -0.3125 0 -0.25
v -0.375 0 -0.25
v -0.375 0 -0.3125
v -0.25 0 -0.3125
v -0.125 0 0
v 0 0.06250003 0.0625
v 0 0.06250003 0.125
v -0.125 0.06250003 0.125
v -0.125 0.06250003 0.0625
v -0.125 7.450581E-09 0.06250001
v 0 7.450581E-09 0.06250001
v 0 0 0.125
v -0.125 0 0.125
v 0.125 0.06250003 0.0625
v 0.125 0.06250003 -0.06250001
v 0.0625 0.06250003 -0.06250001
v 0.0625 0.06250002 -7.450581E-09
v 0 0.06250002 -7.450581E-09
v 0.0625 7.450581E-09 -8.881784E-16
v 0.0625 7.450581E-09 -0.06250001
v 0.125 7.450581E-09 -0.06250001
v 0.125 7.450581E-09 0.06250001
v 0 0.06250001 -0.06250002
v 0 0.06250001 -0.125
v -0.0625 0.06250001 -0.125
v -0.0625 0.06250001 -0.1875
v -0.125 0.06250001 -0.1875
v -0.125 0.0625 -0.25
v -0.1875 0.0625 -0.3125
v -0.25 0.0625 -0.3125
v -0.25 0.06249997 -0.3750001
v -0.3125 0.06249997 -0.3750001
v -0.3125 0.0625 -0.3125
v -0.375 0.0625 -0.3125
v -0.375 0.0625 -0.4375001
v -0.1875 0.0625 -0.4375001
v -0.1875 0.06249997 -0.3750001
v -0.125 0.06249997 -0.3750001
v -0.125 0.0625 -0.3125
v -0.0625 0.0625 -0.3125
v -0.0625 0.0625 -0.25
v 0 0.0625 -0.25
v 0 0.06250001 -0.1875
v 0.0625 0.06250001 -0.1875
v -0.0625 -1.490116E-08 -0.1875
v 0 0 -0.125
v -0.0625 0 -0.25
v 0 0 -0.25
v 0 -1.490116E-08 -0.1875
v -0.125 0 -0.25
v -0.125 0 -0.3125
v -0.0625 0 -0.3125
v -0.1875 0 -0.3125
v -0.1875 -2.980232E-08 -0.3750001
v -0.125 -2.980232E-08 -0.3750001
v -0.25 0 -0.3125
v -0.25 -2.980232E-08 -0.3750001
v -0.3125 -2.980232E-08 -0.3750001
v -0.3125 0 -0.3125
v -0.375 0 -0.3125
v -0.375 0 -0.4375001
v -0.1875 0 -0.4375001
v 0.0625 -1.490116E-08 -0.1875
v 0 -7.450581E-09 -0.06250001
v 0.125 0.06250003 0.125
v 0.125 0.06250003 0.1875
v 0.25 0.06250003 0.1875
v 0.25 0.06250003 0.0625
v 0.1875 0.06250003 0.0625
v 0.1875 0.06250003 0.125
v 0.1875 1.490116E-08 0.125
v 0.1875 1.490116E-08 0.06250001
v 0.25 1.490116E-08 0.06250001
v 0.25 1.490116E-08 0.1875
v 0.125 1.490116E-08 0.1875
v 0.125 1.490116E-08 0.125
v 0.125 0.06249999 -0.0625
v 0.125 0.0625 -0.1875
v 0.1875 0.0625 -0.1875
v 0.1875 0.06249999 -0.0625
v 0.125 -1.490116E-08 -0.1875
v 0.1875 -1.490116E-08 -0.1875
v 0.1875 -7.450581E-09 -0.06250001

vt 0 0
vt 0.125 0
vt 0.125 -0.0625
vt 0.1875 -0.0625
vt 0.1875 -0.125
vt 0.25 -0.125
vt 0.25 -0.1875
vt 0.3125 -0.1875
vt 0.3125 -0.25
vt 0.375 -0.25
vt 0.375 -0.3125
vt 0.25 -0.3125
vt 0.25 -0.25
vt 0.1875 -0.25
vt 0.1875 -0.1875
vt 0.125 -0.1875
vt 0.125 -0.125
vt 0.0625 -0.125
vt 0.0625 -0.0625
vt 0 -0.0625
vt -0.0625 -0.0625
vt -0.125 -0.125
vt -0.0625 -0.125
vt -0.1875 -0.0625
vt -0.1875 -0.125
vt -0.125 -0.0625
vt -0.1875 -0.1875
vt -0.125 -0.1875
vt -0.25 -0.125
vt -0.25 -0.1875
vt -0.25 -0.25
vt -0.1875 -0.25
vt -0.3125 -0.1875
vt -0.3125 -0.25
vt -0.375 -0.25
vt -0.375 -0.3125
vt -0.25 -0.3125
vt -0.125 0
vt 0.0625 0
vt 0.0625 0.0625
vt 0 0.0625
vt 0.125 0.0625
vt -0.0625 0
vt -0.0625 0.0625
vt -0.125 0.0625
vt -0.1875 0
vt -0.1875 0.0625
vt 0.1875 0
vt 0.1875 0.0625
vt -0.25 0
vt -0.25 0.0625
vt 0.25 0
vt 0.25 0.0625
vt -0.3125 0
vt -0.3125 0.0625
vt -0.375 0
vt -0.375 0.0625
vt 0.375 0
vt 0.375 0.0625
vt 0.3125 0
vt 0.3125 0.0625
vt -0.125 0
vt -0.06250001 0.0625
vt 0.125 0
vt 0.3125 -0.3125
vt 0.375 -0.375
vt 0.1875 -0.375
vt 0.1875 -0.3125
vt 0.125 -0.3125
vt 0.125 -0.25
vt 0.0625 -0.25
vt 0.0625 -0.1875
vt 0 -0.1875
vt 0 -0.125
vt -0.0625 -0.06250003
vt 0 -0.06250003
vt -0.0625 -0.1875
vt -0.125 -0.25
vt -0.0625 -0.25
vt -0.1875 -0.3125
vt -0.125 -0.3125
vt -0.3125 -0.3125
vt -0.375 -0.375
vt -0.1875 -0.375
vt 2.980232E-08 0.06250003

vn 0 1 0
vn 0 -1 0
vn 0 0 -1
vn 1 0 0
vn -1 0 0
vn 0 0 1

usemtl ProBuilderDefault
f 1/1/1 20/20/1 19/19/1
f 19/19/1 18/18/1 17/17/1
f 3/3/1 5/5/1 4/4/1
f 17/17/1 16/16/1 15/15/1
f 5/5/1 7/7/1 6/6/1
f 15/15/1 14/14/1 13/13/1
f 7/7/1 9/9/1 8/8/1
f 9/9/1 11/11/1 10/10/1
f 11/11/1 9/9/1 12/12/1
f 9/9/1 13/13/1 12/12/1
f 7/7/1 13/13/1 9/9/1
f 15/15/1 13/13/1 7/7/1
f 5/5/1 15/15/1 7/7/1
f 17/17/1 15/15/1 5/5/1
f 3/3/1 17/17/1 5/5/1
f 19/19/1 17/17/1 3/3/1
f 19/19/1 3/3/1 2/2/1
f 1/1/1 19/19/1 2/2/1
f 40/38/2 21/21/2 23/1/2
f 40/38/2 28/26/2 21/21/2
f 28/26/2 24/22/2 21/21/2
f 27/25/2 24/22/2 28/26/2
f 27/25/2 29/27/2 24/22/2
f 32/30/2 29/27/2 27/25/2
f 32/30/2 33/31/2 29/27/2
f 36/34/2 33/31/2 32/30/2
f 39/37/2 33/31/2 36/34/2
f 39/37/2 36/34/2 38/36/2
f 37/35/2 38/36/2 36/34/2
f 35/33/2 36/34/2 32/30/2
f 33/31/2 34/32/2 29/27/2
f 31/29/2 32/30/2 27/25/2
f 29/27/2 30/28/2 24/22/2
f 26/24/2 27/25/2 28/26/2
f 24/22/2 25/23/2 21/21/2
f 21/21/2 22/20/2 23/1/2
f 50/22/1 51/23/1 52/21/1
f 49/38/1 50/22/1 52/21/1
f 52/21/1 53/20/1 41/1/1
f 49/38/1 52/21/1 41/1/1
f 46/1/2 54/19/2 57/2/2
f 46/1/2 23/20/2 54/19/2
f 54/19/2 56/17/2 57/2/2
f 54/19/2 55/18/2 56/17/2
f 59/20/1 61/18/1 60/19/1
f 78/74/1 77/73/1 76/72/1
f 61/18/1 63/16/1 62/17/1
f 76/72/1 75/71/1 74/70/1
f 63/16/1 64/14/1 14/15/1
f 74/70/1 73/69/1 72/68/1
f 64/14/1 66/12/1 65/13/1
f 69/10/1 68/9/1 67/65/1
f 69/10/1 67/65/1 70/66/1
f 67/65/1 66/12/1 70/66/1
f 70/66/1 66/12/1 71/67/1
f 66/12/1 72/68/1 71/67/1
f 64/14/1 72/68/1 66/12/1
f 74/70/1 72/68/1 64/14/1
f 63/16/1 74/70/1 64/14/1
f 76/72/1 74/70/1 63/16/1
f 61/18/1 76/72/1 63/16/1
f 78/74/1 76/72/1 61/18/1
f 59/20/1 78/74/1 61/18/1
f 79/23/1 78/74/1 59/20/1
f 51/43/1 79/23/1 59/20/1
f 51/43/1 59/20/1 58/1/1
f 99/1/2 81/76/2 55/39/2
f 81/76/2 98/18/2 55/39/2
f 81/76/2 84/74/2 98/18/2
f 80/23/2 84/74/2 81/76/2
f 80/23/2 82/77/2 84/74/2
f 85/28/2 82/77/2 80/23/2
f 85/28/2 86/78/2 82/77/2
f 88/32/2 86/78/2 85/28/2
f 88/32/2 89/80/2 86/78/2
f 92/37/2 89/80/2 88/32/2
f 97/84/2 89/80/2 92/37/2
f 97/84/2 92/37/2 96/83/2
f 96/83/2 92/37/2 93/82/2
f 96/83/2 93/82/2 95/35/2
f 93/82/2 94/34/2 95/35/2
f 91/31/2 92/37/2 88/32/2
f 89/80/2 90/81/2 86/78/2
f 34/27/2 88/32/2 85/28/2
f 86/78/2 87/79/2 82/77/2
f 30/22/2 85/28/2 80/23/2
f 82/77/2 83/73/2 84/74/2
f 25/75/2 80/23/2 81/76/2
f 103/26/1 104/21/1 105/43/1
f 102/45/1 103/26/1 105/43/1
f 105/43/1 100/1/1 101/41/1
f 102/45/1 105/43/1 101/41/1
f 110/41/2 106/39/2 109/42/2
f 110/41/2 111/1/2 106/39/2
f 106/39/2 108/3/2 109/42/2
f 106/39/2 107/19/2 108/3/2
f 20/41/3 22/1/3 21/39/3
f 21/39/3 19/40/3 20/41/3
f 1/41/4 23/1/4 22/39/4
f 22/39/4 20/40/4 1/41/4
f 18/40/3 25/39/3 24/2/3
f 24/2/3 17/42/3 18/40/3
f 19/40/4 21/39/4 25/2/4
f 25/2/4 18/42/4 19/40/4
f 5/45/5 27/38/5 26/43/5
f 26/43/5 4/44/5 5/45/5
f 4/47/6 26/46/6 28/38/6
f 28/38/6 3/45/6 4/47/6
f 16/42/3 30/2/3 29/48/3
f 29/48/3 15/49/3 16/42/3
f 17/42/4 24/2/4 30/48/4
f 30/48/4 16/49/4 17/42/4
f 7/47/5 32/46/5 31/38/5
f 31/38/5 6/45/5 7/47/5
f 6/51/6 31/50/6 27/46/6
f 27/46/6 5/47/6 6/51/6
f 14/49/3 34/48/3 33/52/3
f 33/52/3 13/53/3 14/49/3
f 15/49/4 29/48/4 34/52/4
f 34/52/4 14/53/4 15/49/4
f 9/51/5 36/50/5 35/46/5
f 35/46/5 8/47/5 9/51/5
f 8/55/6 35/54/6 32/50/6
f 32/50/6 7/51/6 8/55/6
f 11/55/5 38/54/5 37/50/5
f 37/50/5 10/51/5 11/55/5
f 10/57/6 37/56/6 36/54/6
f 36/54/6 9/55/6 10/57/6
f 12/53/3 39/52/3 38/58/3
f 38/58/3 11/59/3 12/53/3
f 13/53/4 33/52/4 39/60/4
f 39/60/4 12/61/4 13/53/4
f 3/44/5 28/43/5 40/1/5
f 40/1/5 2/41/5 3/44/5
f 2/45/6 40/38/6 23/1/6
f 23/1/6 1/41/6 2/45/6
f 42/41/1 41/1/1 44/2/1
f 44/2/1 43/42/1 42/41/1
f 47/41/2 48/45/2 45/38/2
f 45/38/2 46/1/2 47/41/2
f 41/41/3 46/1/3 45/2/3
f 45/2/3 44/42/3 41/41/3
f 42/44/4 47/43/4 46/1/4
f 46/1/4 41/41/4 42/44/4
f 44/41/5 45/1/5 48/39/5
f 48/39/5 43/40/5 44/41/5
f 43/45/6 48/38/6 47/1/6
f 47/1/6 42/41/6 43/45/6
f 51/45/5 55/62/5 54/43/5
f 54/43/5 52/63/5 51/45/5
f 50/45/3 56/38/3 55/43/3
f 55/43/3 51/44/3 50/45/3
f 49/41/4 57/1/4 56/64/4
f 56/64/4 50/42/4 49/41/4
f 53/44/5 23/43/5 46/1/5
f 46/1/5 41/41/5 53/44/5
f 52/44/3 54/43/3 23/1/3
f 23/1/3 53/41/3 52/44/3
f 41/41/6 46/1/6 57/2/6
f 57/2/6 49/42/6 41/41/6
f 61/45/5 80/38/5 25/43/5
f 25/43/5 60/44/5 61/45/5
f 60/44/6 25/43/6 81/1/6
f 81/1/6 59/41/6 60/44/6
f 77/41/3 83/1/3 82/39/3
f 82/39/3 76/40/3 77/41/3
f 78/42/4 84/2/4 83/48/4
f 83/48/4 77/49/4 78/42/4
f 63/47/5 85/46/5 30/38/5
f 30/38/5 62/45/5 63/47/5
f 62/45/6 30/38/6 80/43/6
f 80/43/6 61/44/6 62/45/6
f 75/40/3 87/39/3 86/2/3
f 86/2/3 74/42/3 75/40/3
f 76/49/4 82/48/4 87/52/4
f 87/52/4 75/53/4 76/49/4
f 64/51/5 88/50/5 34/46/5
f 34/46/5 14/47/5 64/51/5
f 14/47/6 34/46/6 85/38/6
f 85/38/6 63/45/6 14/47/6
f 73/42/3 90/2/3 89/48/3
f 89/48/3 72/49/3 73/42/3
f 74/53/4 86/52/4 90/60/4
f 90/60/4 73/61/4 74/53/4
f 66/55/5 92/54/5 91/50/5
f 91/50/5 65/51/5 66/55/5
f 65/51/6 91/50/6 88/46/6
f 88/46/6 64/47/6 65/51/6
f 68/53/4 94/52/4 93/60/4
f 93/60/4 67/61/4 68/53/4
f 69/57/6 95/56/6 94/54/6
f 94/54/6 68/55/6 69/57/6
f 70/57/5 96/56/5 95/50/5
f 95/50/5 69/51/5 70/57/5
f 67/55/6 93/54/6 92/50/6
f 92/50/6 66/51/6 67/55/6
f 71/49/3 97/48/3 96/58/3
f 96/58/3 70/59/3 71/49/3
f 72/61/4 89/60/4 97/58/4
f 97/58/4 71/59/4 72/61/4
f 79/44/3 98/43/3 84/1/3
f 84/1/3 78/41/3 79/44/3
f 51/85/4 55/1/4 98/2/4
f 98/2/4 79/42/4 51/85/4
f 59/44/5 81/43/5 99/1/5
f 99/1/5 58/41/5 59/44/5
f 58/41/6 99/1/6 55/39/6
f 55/39/6 51/40/6 58/41/6
f 104/44/5 107/43/5 106/1/5
f 106/1/5 105/41/5 104/44/5
f 103/45/3 108/38/3 107/43/3
f 107/43/3 104/44/3 103/45/3
f 102/44/4 109/43/4 108/39/4
f 108/39/4 103/40/4 102/44/4
f 100/41/5 111/1/5 110/39/5
f 110/39/5 101/40/5 100/41/5
f 105/44/3 106/43/3 111/1/3
f 111/1/3 100/41/3 105/44/3
f 101/41/6 110/1/6 109/2/6
f 109/2/6 102/42/6 101/41/6
f 115/43/1 114/23/1 113/74/1
f 113/74/1 112/1/1 115/43/1
f 118/39/2 56/1/2 116/74/2
f 116/74/2 117/18/2 118/39/2
f 114/44/3 117/43/3 116/1/3
f 116/1/3 113/41/3 114/44/3
f 115/85/4 118/1/4 117/64/4
f 117/64/4 114/42/4 115/85/4
f 113/45/5 116/62/5 56/1/5
f 56/1/5 112/41/5 113/45/5
f 112/41/6 56/1/6 118/39/6
f 118/39/6 115/40/6 112/41/6

