# ProBuilder 4.2.3
# https://unity3d.com/unity/features/worldbuilding/probuilder
# 21-08-2020 23:00:55

mtllib ./HealthRegUpgrade.mtl
o HealthRegUpgrade

g HealthRegUpgrade
v 0 0.0625 0
v 0 0.0625 -0.0625
v -0.125 0.0625 -0.0625
v -0.125 0.0625 -0.1875
v 0 0.0625 -0.1875
v 0 0.0625 -0.125
v 0.0625 0.0625 -0.125
v 0.0625 0.0625 0
v -0.125 0 -0.1875
v 0 0 -0.1875
v 0 0 -0.125
v -0.125 0 -0.0625
v 0 0 -0.0625
v 0.0625 0 -0.125
v 0.0625 0 0
v 0 0 0
v -0.25 0.06250003 0.0625
v -0.25 0.06250003 0.3750001
v -0.1875 0.06250003 0.3750001
v -0.1875 0.0625 0.5000001
v -0.125 0.0625 0.5000001
v -0.125 0.0625 0.5625001
v 0 0.0625 0.5625001
v 0 0.0625 0.5000001
v 0.125 0.0625 0.5000001
v 0.125 0.0625 0.5625001
v 0.25 0.0625 0.5625001
v 0.25 0.0625 0.5000001
v 0.3125 0.0625 0.5000001
v 0.3125 0.06250003 0.3750001
v 0.375 0.06250003 0.3750001
v 0.375 0.06250003 0.0625
v 0.3125 0.06250003 0.0625
v 0.3125 0.06250002 -7.450581E-09
v 0.125 0.06250002 -7.450581E-09
v 0.125 0.06250003 0.0625
v 0 0.06250003 0.0625
v 0 0.0625 0.25
v -0.125 0.0625 0.25
v -0.125 0.06250003 0.125
v -0.1875 0.06250003 0.125
v -0.1875 0.06250003 0.0625
v 0.3125 7.450581E-09 0.06250001
v 0.375 7.450581E-09 0.06250001
v 0.375 2.980232E-08 0.3750001
v -0.125 0 0.5625001
v -0.125 0 0.5000001
v 0 0 0.5625001
v 0 0 0.5000001
v -0.1875 0 0.5000001
v -0.1875 2.980232E-08 0.3750001
v -0.25 7.450581E-09 0.06250001
v -0.1875 7.450581E-09 0.06250001
v -0.1875 0 0.125
v -0.25 2.980232E-08 0.3750001
v -0.125 0 0.125
v -0.125 0 0.25
v 0 0 0.25
v 0.125 0 0.5000001
v 0.3125 2.980232E-08 0.3750001
v 0.3125 0 0.5000001
v 0.25 0 0.5000001
v 0.125 0 0.5625001
v 0.25 0 0.5625001
v 0 7.450581E-09 0.06250001
v 0.125 7.450581E-09 0.06250001
v 0.125 7.450581E-09 -8.881784E-16
v 0.3125 7.450581E-09 -8.881784E-16
v -0.1875 0.06250001 -7.450581E-09
v 0 0.06250001 0.125
v 0 0.06250001 -7.450581E-09
v -0.1875 0 0
v 0 0 0.125

vt 0 0
vt 0 -0.0625
vt 0.125 -0.0625
vt 0.125 -0.1875
vt 0 -0.1875
vt 0 -0.125
vt -0.0625 -0.125
vt -0.0625 0
vt -0.125 -0.1875
vt -0.125 -0.0625
vt 0.0625 -0.125
vt 0.0625 0
vt 0.125 0
vt 0.125 0.0625
vt 0 0.0625
vt 0.1875 0
vt 0.1875 0.0625
vt -0.1875 0
vt -0.0625 0.0625
vt -0.1875 0.0625
vt -0.125 0
vt -0.125 0.0625
vt 0.0625 0.0625
vt 0 0.3125
vt -0.0625 0.3125
vt -0.0625 0.4375
vt -0.125 0.4375
vt -0.125 0.5
vt -0.25 0.5
vt -0.25 0.4375
vt -0.375 0.4375
vt -0.375 0.5
vt -0.5 0.5
vt -0.5 0.4375
vt -0.5625 0.4375
vt -0.5625 0.3125
vt -0.625 0.3125
vt -0.625 0
vt -0.5625 0
vt -0.5625 -0.0625
vt -0.375 -0.0625
vt -0.375 0
vt -0.25 0
vt -0.25 0.1875
vt -0.125 0.1875
vt 0.5625 0
vt 0.625 0
vt 0.625 0.3125
vt 0.125 0.5
vt 0.125 0.4375
vt 0.25 0.5
vt 0.25 0.4375
vt 0.0625 0.4375
vt 0.0625 0.3125
vt 0.0625 0.06250001
vt 0.125 0.06250001
vt 0.125 0.1875
vt 0.25 0.1875
vt 0.375 0.4375
vt 0.5625 0.3125
vt 0.5625 0.4375
vt 0.5 0.4375
vt 0.375 0.5
vt 0.5 0.5
vt 0.25 0
vt 0.375 0
vt 0.375 -0.0625
vt 0.5625 -0.0625
vt -0.5625 0.0625
vt -0.625 0.0625
vt -0.3125 2.04891E-08
vt -0.3125 0.06250006
vt 0.5 0
vt 0.4375 0
vt 0.5 0.0625
vt 0.4375 0.0625
vt 0.25 0.0625
vt -0.4375 0
vt -0.5 0
vt -0.4375 0.0625
vt -0.5 0.0625
vt 0.3125 2.607703E-08
vt 0.3125 0.06250003
vt 0.3125 0.0625
vt -0.06250003 0
vt -0.1875 0
vt -0.1875 0.06249997
vt -0.25 0.0625
vt 0.375 0.0625
vt -0.3125 0.0625
vt 0.5625 0.0625
vt 0.1875 -2.980232E-08
vt 0.1875 0.06249997
vt 7.450581E-09 0.06250003
vt -0.375 0.0625
vt 0.625 0.0625
vt 0 0.125
vt -0.1875 0.125
vt 0.1875 0.125
vt 0 0.125
vt -0.125 0.0625
vt 0.125 0.0625

vn 0 1 0
vn 0 -1 0
vn 0 0 -1
vn 1 0 0
vn -1 0 0
vn 0 0 1

usemtl ProBuilderDefault
f 6/6/1 5/5/1 4/4/1
f 3/3/1 6/6/1 4/4/1
f 3/3/1 2/2/1 6/6/1
f 7/7/1 6/6/1 2/2/1
f 8/8/1 7/7/1 2/2/1
f 8/8/1 2/2/1 1/1/1
f 16/1/2 13/2/2 15/12/2
f 13/2/2 14/11/2 15/12/2
f 13/2/2 11/6/2 14/11/2
f 11/6/2 13/2/2 12/10/2
f 9/9/2 11/6/2 12/10/2
f 9/9/2 10/5/2 11/6/2
f 31/37/1 32/38/1 33/39/1
f 23/29/1 21/27/1 22/28/1
f 23/29/1 24/30/1 21/27/1
f 21/27/1 19/25/1 20/26/1
f 21/27/1 24/30/1 19/25/1
f 41/19/1 42/8/1 17/1/1
f 18/24/1 41/19/1 17/1/1
f 39/45/1 40/22/1 41/19/1
f 41/19/1 18/24/1 39/45/1
f 19/25/1 39/45/1 18/24/1
f 19/25/1 38/44/1 39/45/1
f 19/25/1 24/30/1 38/44/1
f 25/31/1 38/44/1 24/30/1
f 28/34/1 29/35/1 30/36/1
f 27/33/1 25/31/1 26/32/1
f 27/33/1 28/34/1 25/31/1
f 30/36/1 25/31/1 28/34/1
f 38/44/1 25/31/1 30/36/1
f 36/42/1 37/43/1 38/44/1
f 30/36/1 36/42/1 38/44/1
f 33/39/1 34/40/1 35/41/1
f 33/39/1 35/41/1 36/42/1
f 30/36/1 33/39/1 36/42/1
f 31/37/1 33/39/1 30/36/1
f 60/60/2 43/46/2 45/48/2
f 66/66/2 43/46/2 60/60/2
f 66/66/2 67/67/2 43/46/2
f 67/67/2 68/68/2 43/46/2
f 58/58/2 66/66/2 60/60/2
f 58/58/2 65/65/2 66/66/2
f 60/60/2 59/59/2 58/58/2
f 62/62/2 59/59/2 60/60/2
f 59/59/2 62/62/2 64/64/2
f 63/63/2 59/59/2 64/64/2
f 60/60/2 61/61/2 62/62/2
f 49/52/2 58/58/2 59/59/2
f 58/58/2 49/52/2 51/54/2
f 57/57/2 58/58/2 51/54/2
f 55/24/2 57/57/2 51/54/2
f 57/57/2 55/24/2 54/55/2
f 54/55/2 56/56/2 57/57/2
f 52/1/2 54/55/2 55/24/2
f 52/1/2 53/12/2 54/55/2
f 51/54/2 49/52/2 47/50/2
f 50/53/2 51/54/2 47/50/2
f 47/50/2 49/52/2 48/51/2
f 46/49/2 47/50/2 48/51/2
f 43/46/2 44/47/2 45/48/2
f 5/15/3 10/1/3 9/13/3
f 9/13/3 4/14/3 5/15/3
f 6/14/4 11/13/4 10/16/4
f 10/16/4 5/17/4 6/14/4
f 4/20/5 9/18/5 12/8/5
f 12/8/5 3/19/5 4/20/5
f 3/22/6 12/21/6 13/1/6
f 13/1/6 2/15/6 3/22/6
f 7/19/3 14/8/3 11/1/3
f 11/1/3 6/15/3 7/19/3
f 8/15/4 15/1/4 14/13/4
f 14/13/4 7/14/4 8/15/4
f 2/19/5 13/8/5 16/1/5
f 16/1/5 1/15/5 2/19/5
f 1/15/6 16/1/6 15/12/6
f 15/12/6 8/23/6 1/15/6
f 32/70/3 44/38/3 43/39/3
f 43/39/3 33/69/3 32/70/3
f 31/72/4 45/71/4 44/1/4
f 44/1/4 32/15/4 31/72/4
f 21/76/5 47/74/5 46/73/5
f 46/73/5 22/75/5 21/76/5
f 22/14/6 46/13/6 48/65/6
f 48/65/6 23/77/6 22/14/6
f 23/81/4 48/79/4 49/78/4
f 49/78/4 24/80/4 23/81/4
f 19/83/5 51/82/5 50/74/5
f 50/74/5 20/76/5 19/83/5
f 20/23/6 50/12/6 47/13/6
f 47/13/6 21/14/6 20/23/6
f 42/19/3 53/8/3 52/1/3
f 52/1/3 17/15/3 42/19/3
f 41/19/4 54/8/4 53/1/4
f 53/1/4 42/15/4 41/19/4
f 17/15/5 52/1/5 55/82/5
f 55/82/5 18/84/5 17/15/5
f 40/22/3 56/21/3 54/8/3
f 54/8/3 41/19/3 40/22/3
f 39/87/4 57/86/4 56/85/4
f 56/85/4 40/19/4 39/87/4
f 18/15/6 55/1/6 51/12/6
f 51/12/6 19/23/6 18/15/6
f 38/88/3 58/43/3 57/21/3
f 57/21/3 39/22/3 38/88/3
f 24/77/6 49/65/6 59/66/6
f 59/66/6 25/89/6 24/77/6
f 29/80/4 61/78/4 60/71/4
f 60/71/4 30/90/4 29/80/4
f 28/75/6 62/73/6 61/46/6
f 61/46/6 29/91/6 28/75/6
f 25/76/5 59/74/5 63/73/5
f 63/73/5 26/75/5 25/76/5
f 26/89/6 63/66/6 64/73/6
f 64/73/6 27/75/6 26/89/6
f 27/81/4 64/79/4 62/78/4
f 62/78/4 28/80/4 27/81/4
f 37/94/5 65/1/5 58/92/5
f 58/92/5 38/93/5 37/94/5
f 36/95/3 66/42/3 65/43/3
f 65/43/3 37/88/3 36/95/3
f 34/69/3 68/39/3 67/42/3
f 67/42/3 35/95/3 34/69/3
f 33/15/4 43/1/4 68/12/4
f 68/12/4 34/23/4 33/15/4
f 35/19/5 67/8/5 66/1/5
f 66/1/5 36/15/5 35/19/5
f 30/91/6 60/46/6 45/47/6
f 45/47/6 31/96/6 30/91/6
f 70/98/1 71/18/1 69/1/1
f 69/1/1 41/97/1 70/98/1
f 73/99/2 54/100/2 72/1/2
f 72/1/2 16/16/2 73/99/2
f 71/20/3 16/18/3 72/1/3
f 72/1/3 69/15/3 71/20/3
f 70/101/4 73/21/4 16/1/4
f 16/1/4 71/15/4 70/101/4
f 69/15/5 72/1/5 54/13/5
f 54/13/5 41/102/5 69/15/5
f 41/15/6 54/1/6 73/16/6
f 73/16/6 70/17/6 41/15/6

