# ProBuilder 4.2.3
# https://unity3d.com/unity/features/worldbuilding/probuilder
# 21-08-2020 23:28:12

mtllib ./MovSpd_Upgrade.mtl
o MovSpd Upgrade

g MovSpd Upgrade
v 0 0.0625 -1.811981E-05
v 0 0.0625 0.0625
v 0.0625 0.0625 0.0625
v 0.0625 0.0625 0
v 0 0 -1.811981E-05
v 0.0625 0 0
v 0 0 0.0625
v 0.0625 0 0.0625
v -0.3125 0.06250003 0.1249819
v -0.3125 0.06250003 0.1875
v -0.25 0.06250003 0.1875
v -0.25 0.06250003 0.125
v -0.3125 1.490116E-08 0.1249819
v -0.25 1.490116E-08 0.125
v -0.3125 1.490116E-08 0.1875
v -0.25 1.490116E-08 0.1875
v -0.125 0.06250006 0.1875
v -0.25 0.06250003 0.25
v -0.125 0.06250003 0.25
v -0.125 2.980232E-08 0.1875
v -0.125 2.980232E-08 0.25
v -0.25 2.980232E-08 0.25
v -0.125 0.06250003 0.1249819
v -0.0625 0.06250003 0.1875
v -0.0625 0.06250003 0.125
v -0.125 1.490116E-08 0.1249819
v -0.0625 1.490116E-08 0.125
v -0.0625 1.490116E-08 0.1875
v -0.3125 0.06250001 -0.06250002
v -0.3125 0.0625 0.0625
v -0.25 0.0625 0.0625
v -0.25 0.0625 0.125
v -0.125 0.0625 0.125
v -0.125 0.0625 0.0625
v -0.0625 0.0625 0.0625
v -0.0625 0.06250001 -7.450581E-09
v 0 0.06250001 -7.450581E-09
v 0 0.06250001 -0.06250002
v 0.0625 0.06250001 -0.06250002
v 0.0625 0.0625 -0.5000001
v 0 0.0625 -0.5000001
v 0 0.0625 -0.25
v -0.0625 0.0625 -0.25
v -0.0625 0.06249997 -0.3750001
v -0.125 0.06249997 -0.3750001
v -0.125 0.0625 -0.5000001
v -0.25 0.0625 -0.5000001
v -0.25 0.06249997 -0.3750001
v -0.1875 0.06249997 -0.3750001
v -0.1875 0.06250001 -0.125
v -0.25 0.06250001 -0.125
v -0.25 0.06250001 -0.06250002
v 0.0625 0 -0.5000001
v 0 0 -0.25
v 0 0 -0.5000001
v 0.0625 -7.450581E-09 -0.06250001
v -0.25 -7.450581E-09 0.06250001
v -0.125 -1.490116E-08 0.125
v -0.125 -7.450581E-09 0.06250001
v -0.3125 -7.450581E-09 0.06250001
v -0.3125 -7.450581E-09 -0.06250001
v -0.25 -7.450581E-09 -0.06250001
v -0.0625 -7.450581E-09 8.881784E-16
v -0.0625 -7.450581E-09 0.06250001
v -0.25 0 -0.125
v -0.1875 0 -0.125
v 0 -7.450581E-09 -0.06250001
v -0.125 -2.980232E-08 -0.3750001
v -0.0625 -2.980232E-08 -0.3750001
v -0.0625 0 -0.25
v -0.25 -2.980232E-08 -0.3750001
v -0.25 0 -0.5000001
v -0.1875 -2.980232E-08 -0.3750001
v -0.125 0 -0.5000001
v -0.0625 0.06250002 0.06248188
v 0 0.06250003 0.125
v 0 0.06250003 0.0625
v -0.0625 7.450581E-09 0.06248189
v 0 7.450581E-09 0.06250001
v 0 0 0.125
v 0.25 0.06250001 -1.812726E-05
v 0.25 0.06250001 0.0625
v 0.1875 0.06250001 0.0625
v 0.1875 0.06250001 -7.450581E-09
v 0.25 0 -1.811981E-05
v 0.1875 0 0
v 0.25 0 0.06250001
v 0.1875 0 0.06250001
v 0.5625 0.06250004 0.1249819
v 0.5625 0.06250003 0.1875
v 0.5 0.06250003 0.1875
v 0.5 0.06250004 0.125
v 0.5625 1.490116E-08 0.1249819
v 0.5 1.490116E-08 0.125
v 0.5625 1.490116E-08 0.1875
v 0.5 1.490116E-08 0.1875
v 0.375 0.06250006 0.1875
v 0.5 0.06250003 0.25
v 0.375 0.06250003 0.25
v 0.375 2.980232E-08 0.1875
v 0.375 2.980232E-08 0.25
v 0.5 2.980232E-08 0.25
v 0.375 0.06250004 0.1249819
v 0.3125 0.06250003 0.1875
v 0.3125 0.06250004 0.125
v 0.375 1.490116E-08 0.1249819
v 0.3125 1.490116E-08 0.125
v 0.3125 1.490116E-08 0.1875
v 0.5625 0.06250002 -0.06250001
v 0.5625 0.06250001 0.0625
v 0.5 0.06250001 0.0625
v 0.375 0.06250001 0.125
v 0.375 0.06250001 0.0625
v 0.3125 0.06250001 0.0625
v 0.3125 0.06250002 -7.450581E-09
v 0.25 0.06250002 -0.06250001
v 0.1875 0.06250002 -0.06250001
v 0.1875 0.0625 -0.5000001
v 0.25 0.0625 -0.5000001
v 0.25 0.0625 -0.25
v 0.3125 0.0625 -0.25
v 0.3125 0.06249997 -0.3750001
v 0.375 0.06249997 -0.3750001
v 0.375 0.0625 -0.5000001
v 0.5 0.0625 -0.5000001
v 0.5 0.06249997 -0.3750001
v 0.4375 0.06249997 -0.3750001
v 0.4375 0.06250002 -0.125
v 0.5 0.06250002 -0.125
v 0.5 0.06250002 -0.06250001
v 0.1875 0 -0.5000001
v 0.25 0 -0.25
v 0.25 0 -0.5000001
v 0.1875 -7.450581E-09 -0.06250001
v 0.5 -7.450581E-09 0.06250001
v 0.375 -1.490116E-08 0.125
v 0.375 -7.450581E-09 0.06250001
v 0.5625 -7.450581E-09 0.06250001
v 0.5625 -7.450581E-09 -0.06250001
v 0.5 -7.450581E-09 -0.06250001
v 0.3125 -7.450583E-09 8.881784E-16
v 0.3125 -7.450581E-09 0.06250001
v 0.5 0 -0.125
v 0.4375 0 -0.125
v 0.25 -7.450581E-09 -0.06250001
v 0.375 -2.980232E-08 -0.3750001
v 0.3125 -2.980232E-08 -0.3750001
v 0.3125 0 -0.25
v 0.5 -2.980232E-08 -0.3750001
v 0.5 0 -0.5000001
v 0.4375 -2.980232E-08 -0.3750001
v 0.375 0 -0.5000001
v 0.25 0.06250004 0.125
v 0.3125 7.450581E-09 0.06248189
v 0.25 0 0.125

vt 0 -1.811981E-05
vt 0 0.0625
vt -0.0625 0.0625
vt -0.0625 0
vt 0.0625 0
vt 0.0625 0.0625
vt 0.125 0
vt 0.125 0.0625
vt -0.125 0
vt -0.125 0.0625
vt -0.06250001 5.587935E-09
vt -0.0625 0.06250001
vt 0 0.125
vt -0.0625 0.125
vt -0.0625 0.1875
vt -0.1875 0.1875
vt -0.1875 0.125
vt -0.25 0.125
vt -0.25 0.0625
vt -0.3125 0.0625
vt -0.3125 -1.490116E-08
vt -0.375 -1.490116E-08
vt -0.375 -0.4375
vt -0.3125 -0.4375
vt -0.3125 -0.1875
vt -0.25 -0.1875
vt -0.25 -0.3125
vt -0.1875 -0.3125
vt -0.1875 -0.4375
vt -0.0625 -0.4375
vt -0.0625 -0.3125
vt -0.125 -0.3125
vt -0.125 -0.0625
vt -0.0625 -0.0625
vt 0.375 -0.4375
vt 0.3125 -0.1875
vt 0.3125 -0.4375
vt 0.375 1.490116E-08
vt 0.0625 0.1875
vt 0.0625 0.125
vt 0.1875 0.1875
vt 0.1875 0.125
vt 0.25 0.0625
vt 0.25 0.125
vt 0.0625 -0.0625
vt 0.125 -0.0625
vt 0.3125 1.490116E-08
vt 0.3125 0.0625
vt 0.1875 -0.3125
vt 0.25 -0.3125
vt 0.25 -0.1875
vt 0.0625 -0.3125
vt 0.0625 -0.4375
vt 0.125 -0.3125
vt 0.1875 -0.4375
vt -0.1875 0
vt -0.4375 0
vt -0.1875 0.0625
vt -0.4375 0.0625
vt -0.375 0.0625
vt 0.4375 7.450581E-09
vt 0.4375 0.06249999
vt 0.1875 -3.72529E-09
vt 0.1875 0.06249999
vt 0.1875 0
vt -0.1875 0.0625
vt 0.125 0.06249999
vt -0.125 0.0625
vt 0.25 0
vt -0.25 0
vt 0.1875 0.06250003
vt -0.4375 0.06250003
vt 0.4375 2.980232E-08
vt 0.4375 0.0625
vt -0.06250001 0.0625
vt 0.375 0.0625
vt -0.625 -1.811981E-05
vt -0.625 0.0625
vt -0.5625 0.0625
vt -0.5625 0
vt 0.625 -1.813471E-05
vt 0.5625 -1.490116E-08
vt 0.625 0.0625
vt 0.5625 0.0625
vt -0.6249275 -1.490116E-08
vt -0.6249275 0.06249999
vt -0.3125 0
vt -0.2499819 0
vt -0.3125 0.06249999
vt -0.2499819 0.0625
vt 0.3125 -3.72529E-09
vt 0.3125 0.06249998
vt -0.1874275 -1.862645E-08
vt -0.625 0.125
vt -0.5625 0.125
vt -0.5625 0.1875
vt -0.4375 0.1875
vt -0.4375 0.125
vt -0.375 0.125
vt -0.375 0.06250001
vt -0.3125 0.06250001
vt -0.25 -0.4374999
vt -0.3125 -0.1875
vt -0.375 -0.1875
vt -0.375 -0.3125
vt -0.4375 -0.3125
vt -0.4375 -0.4374999
vt -0.5625 -0.4374999
vt -0.5625 -0.3125
vt -0.5 -0.3125
vt -0.5 -0.06249999
vt -0.5625 -0.06249999
vt 0.25 -0.4374999
vt 0.3125 -0.1875
vt 0.5625 0.1875001
vt 0.5625 0.125
vt 0.4375 0.1875001
vt 0.4375 0.125
vt 0.625 0.125
vt 0.375 0.06250003
vt 0.375 0.125
vt 0.5625 -0.06249997
vt 0.5 -0.06249997
vt 0.3125 0.06250003
vt 0.4375 -0.3125
vt 0.375 -0.3125
vt 0.375 -0.1875
vt 0.5625 -0.3125
vt 0.5625 -0.4374999
vt 0.5 -0.3125
vt 0.4375 -0.4374999
vt 0.5625001 0
vt 0.5625001 0.0625
vt 2.607703E-08 0.06250002
vt 0.125 0.06250001
vt -0.5 0
vt -0.5 0.0625
vt 0.5 0
vt 0.5 0.0625
vt -0.5625001 2.980232E-08
vt -0.5625001 0.0625
vt -0.1249638 -3.72529E-09

vn 0 1 0
vn 0 -1 0
vn 0.000289917 0 -1
vn -1 0 0
vn 1 0 0
vn 0 0 1

usemtl ProBuilderDefault
f 41/24/1 42/25/1 40/23/1
f 39/22/1 40/23/1 42/25/1
f 33/16/1 31/14/1 32/15/1
f 33/16/1 34/17/1 31/14/1
f 31/14/1 29/1/1 30/13/1
f 31/14/1 52/4/1 29/1/1
f 34/17/1 52/4/1 31/14/1
f 34/17/1 35/18/1 36/19/1
f 52/4/1 34/17/1 36/19/1
f 50/33/1 51/34/1 52/4/1
f 36/19/1 50/33/1 52/4/1
f 36/19/1 37/20/1 38/21/1
f 50/33/1 36/19/1 38/21/1
f 43/26/1 44/27/1 45/28/1
f 49/32/1 47/30/1 48/31/1
f 47/30/1 49/32/1 46/29/1
f 49/32/1 45/28/1 46/29/1
f 43/26/1 45/28/1 49/32/1
f 50/33/1 43/26/1 49/32/1
f 38/21/1 43/26/1 50/33/1
f 38/21/1 42/25/1 43/26/1
f 39/22/1 42/25/1 38/21/1
f 67/47/2 54/36/2 56/38/2
f 70/51/2 54/36/2 67/47/2
f 66/46/2 70/51/2 67/47/2
f 73/54/2 70/51/2 66/46/2
f 73/54/2 68/49/2 70/51/2
f 74/55/2 68/49/2 73/54/2
f 74/55/2 73/54/2 72/53/2
f 71/52/2 72/53/2 73/54/2
f 68/49/2 69/50/2 70/51/2
f 67/47/2 63/43/2 66/46/2
f 67/47/2 5/48/2 63/43/2
f 62/5/2 66/46/2 63/43/2
f 62/5/2 65/45/2 66/46/2
f 63/43/2 59/42/2 62/5/2
f 63/43/2 64/44/2 59/42/2
f 57/40/2 62/5/2 59/42/2
f 61/1/2 62/5/2 57/40/2
f 60/13/2 61/1/2 57/40/2
f 57/40/2 59/42/2 58/41/2
f 14/39/2 57/40/2 58/41/2
f 54/36/2 53/35/2 56/38/2
f 53/35/2 54/36/2 55/37/2
f 116/21/1 120/103/1 117/70/1
f 121/104/1 120/103/1 116/21/1
f 128/111/1 121/104/1 116/21/1
f 127/110/1 121/104/1 128/111/1
f 127/110/1 123/106/1 121/104/1
f 124/107/1 123/106/1 127/110/1
f 124/107/1 127/110/1 125/108/1
f 126/109/1 125/108/1 127/110/1
f 123/106/1 122/105/1 121/104/1
f 116/21/1 115/100/1 128/111/1
f 116/21/1 81/101/1 115/100/1
f 130/80/1 128/111/1 115/100/1
f 130/80/1 129/112/1 128/111/1
f 115/100/1 113/98/1 130/80/1
f 115/100/1 114/99/1 113/98/1
f 111/95/1 130/80/1 113/98/1
f 109/77/1 130/80/1 111/95/1
f 110/94/1 109/77/1 111/95/1
f 111/95/1 113/98/1 112/97/1
f 92/96/1 111/95/1 112/97/1
f 120/103/1 118/102/1 117/70/1
f 118/102/1 120/103/1 119/24/1
f 133/37/2 132/114/2 131/113/2
f 134/69/2 131/113/2 132/114/2
f 136/117/2 135/116/2 94/115/2
f 136/117/2 137/118/2 135/116/2
f 135/116/2 139/81/2 138/119/2
f 135/116/2 140/82/2 139/81/2
f 137/118/2 140/82/2 135/116/2
f 137/118/2 142/121/2 141/120/2
f 140/82/2 137/118/2 141/120/2
f 144/123/2 143/122/2 140/82/2
f 141/120/2 144/123/2 140/82/2
f 141/120/2 85/124/2 145/47/2
f 144/123/2 141/120/2 145/47/2
f 148/127/2 147/126/2 146/125/2
f 151/130/2 150/129/2 149/128/2
f 150/129/2 151/130/2 152/131/2
f 151/130/2 146/125/2 152/131/2
f 148/127/2 146/125/2 151/130/2
f 144/123/2 148/127/2 151/130/2
f 145/47/2 148/127/2 144/123/2
f 145/47/2 132/114/2 148/127/2
f 134/69/2 132/114/2 145/47/2
f 3/3/1 4/4/1 1/1/1
f 1/1/1 2/2/1 3/3/1
f 6/5/2 8/6/2 7/2/2
f 7/2/2 5/1/2 6/5/2
f 4/3/3 6/4/3 5/1/3
f 5/1/3 1/2/3 4/3/3
f 1/2/4 5/1/4 7/5/4
f 7/5/4 2/6/4 1/2/4
f 3/3/5 8/4/5 6/1/5
f 6/1/5 4/2/5 3/3/5
f 2/2/6 7/1/6 8/5/6
f 8/5/6 3/6/6 2/2/6
f 11/3/1 12/4/1 9/1/1
f 9/1/1 10/2/1 11/3/1
f 14/5/2 16/6/2 15/2/2
f 15/2/2 13/1/2 14/5/2
f 12/3/3 14/4/3 13/1/3
f 13/1/3 9/2/3 12/3/3
f 9/2/4 13/1/4 15/5/4
f 15/5/4 10/6/4 9/2/4
f 11/3/5 16/4/5 14/1/5
f 14/1/5 12/2/5 11/3/5
f 10/2/6 15/1/6 16/5/6
f 16/5/6 11/6/6 10/2/6
f 19/2/1 17/1/1 11/7/1
f 11/7/1 18/8/1 19/2/1
f 21/2/2 22/10/2 16/9/2
f 16/9/2 20/1/2 21/2/2
f 17/2/3 20/1/3 16/7/3
f 16/7/3 11/8/3 17/2/3
f 19/3/5 21/4/5 20/1/5
f 20/1/5 17/2/5 19/3/5
f 11/2/4 16/1/4 22/5/4
f 22/5/4 18/6/4 11/2/4
f 18/10/6 22/9/6 21/1/6
f 21/1/6 19/2/6 18/10/6
f 24/3/1 25/4/1 23/1/1
f 23/1/1 17/2/1 24/3/1
f 27/5/2 28/6/2 20/2/2
f 20/2/2 26/1/2 27/5/2
f 25/12/3 27/11/3 26/1/3
f 26/1/3 23/2/3 25/12/3
f 23/2/4 26/1/4 20/5/4
f 20/5/4 17/6/4 23/2/4
f 24/3/5 28/4/5 27/1/5
f 27/1/5 25/2/5 24/3/5
f 17/2/6 20/1/6 28/5/6
f 28/5/6 24/6/6 17/2/6
f 41/59/4 55/57/4 54/56/4
f 54/56/4 42/58/4 41/59/4
f 40/60/3 53/22/3 55/21/3
f 55/21/3 41/20/3 40/60/3
f 39/2/5 56/1/5 53/61/5
f 53/61/5 40/62/5 39/2/5
f 31/8/4 57/7/4 14/63/4
f 14/63/4 32/64/4 31/8/4
f 32/6/6 14/5/6 58/65/6
f 58/65/6 33/64/6 32/6/6
f 33/66/5 58/56/5 59/9/5
f 59/9/5 34/10/5 33/66/5
f 29/2/4 61/1/4 60/7/4
f 60/7/4 30/67/4 29/2/4
f 30/2/6 60/1/6 57/5/6
f 57/5/6 31/6/6 30/2/6
f 52/3/3 62/4/3 61/1/3
f 61/1/3 29/2/3 52/3/3
f 35/68/5 64/9/5 63/11/5
f 63/11/5 36/3/5 35/68/5
f 34/64/6 59/65/6 64/69/6
f 64/69/6 35/43/6 34/64/6
f 51/3/4 65/4/4 62/1/4
f 62/1/4 52/2/4 51/3/4
f 50/10/3 66/9/3 65/4/3
f 65/4/3 51/3/3 50/10/3
f 37/3/5 5/4/5 67/1/5
f 67/1/5 38/2/5 37/3/5
f 36/43/6 63/69/6 5/47/6
f 5/47/6 37/48/6 36/43/6
f 44/19/3 69/70/3 68/56/3
f 68/56/3 45/58/3 44/19/3
f 43/71/5 70/65/5 69/47/5
f 69/47/5 44/48/5 43/71/5
f 47/72/4 72/57/4 71/21/4
f 71/21/4 48/20/4 47/72/4
f 48/6/6 71/5/6 73/7/6
f 73/7/6 49/8/6 48/6/6
f 46/58/3 74/56/3 72/4/3
f 72/4/3 47/3/3 46/58/3
f 45/48/5 68/47/5 74/73/5
f 74/73/5 46/74/5 45/48/5
f 49/20/4 73/21/4 66/11/4
f 66/11/4 50/75/4 49/20/4
f 42/20/3 54/21/3 70/70/3
f 70/70/3 43/19/3 42/20/3
f 38/48/6 67/47/6 56/38/6
f 56/38/6 39/76/6 38/48/6
f 76/3/1 77/4/1 75/1/1
f 75/1/1 25/2/1 76/3/1
f 79/5/2 80/6/2 27/2/2
f 27/2/2 78/1/2 79/5/2
f 77/3/3 79/11/3 78/1/3
f 78/1/3 75/2/3 77/3/3
f 75/2/4 78/1/4 27/5/4
f 27/5/4 25/6/4 75/2/4
f 76/3/5 80/4/5 79/1/5
f 79/1/5 77/2/5 76/3/5
f 25/2/6 27/1/6 80/5/6
f 80/5/6 76/6/6 25/2/6
f 84/5/1 83/6/1 82/2/1
f 82/2/1 81/1/1 84/5/1
f 88/3/2 86/4/2 85/1/2
f 85/1/2 87/2/2 88/3/2
f 86/5/3 84/6/3 81/2/3
f 81/2/3 85/1/3 86/5/3
f 85/1/5 81/2/5 82/3/5
f 82/3/5 87/4/5 85/1/5
f 88/5/4 83/6/4 84/2/4
f 84/2/4 86/1/4 88/5/4
f 87/1/6 82/2/6 83/3/6
f 83/3/6 88/4/6 87/1/6
f 92/80/1 91/79/1 90/78/1
f 90/78/1 89/77/1 92/80/1
f 96/84/2 94/82/2 93/81/2
f 93/81/2 95/83/2 96/84/2
f 94/80/3 92/79/3 89/86/3
f 89/86/3 93/85/3 94/80/3
f 93/88/5 89/90/5 90/89/5
f 90/89/5 95/87/5 93/88/5
f 96/91/4 91/92/4 92/43/4
f 92/43/4 94/69/4 96/91/4
f 95/81/6 90/83/6 91/84/6
f 91/84/6 96/82/6 95/81/6
f 99/19/1 98/60/1 91/22/1
f 91/22/1 97/70/1 99/19/1
f 101/43/2 100/69/2 96/38/2
f 96/38/2 102/76/2 101/43/2
f 100/70/3 97/19/3 91/60/3
f 91/60/3 96/22/3 100/70/3
f 101/73/4 99/74/4 97/76/4
f 97/76/4 100/38/4 101/73/4
f 96/22/5 91/60/5 98/59/5
f 98/59/5 102/57/5 96/22/5
f 102/38/6 98/76/6 99/43/6
f 99/43/6 101/69/6 102/38/6
f 105/56/1 104/58/1 97/19/1
f 97/19/1 103/70/1 105/56/1
f 108/64/2 107/65/2 106/69/2
f 106/69/2 100/43/2 108/64/2
f 107/93/3 105/66/3 103/90/3
f 103/90/3 106/88/3 107/93/3
f 106/88/5 103/90/5 97/89/5
f 97/89/5 100/87/5 106/88/5
f 108/91/4 104/92/4 105/43/4
f 105/43/4 107/69/4 108/91/4
f 100/69/6 97/43/6 104/64/6
f 104/64/6 108/65/6 100/69/6
f 133/132/5 119/133/5 120/92/5
f 120/92/5 132/91/5 133/132/5
f 131/70/3 118/19/3 119/20/3
f 119/20/3 133/21/3 131/70/3
f 134/9/4 117/10/4 118/79/4
f 118/79/4 131/80/4 134/9/4
f 135/1/5 111/2/5 92/3/5
f 92/3/5 94/4/5 135/1/5
f 94/82/6 92/84/6 112/74/6
f 112/74/6 136/73/6 94/82/6
f 136/5/4 112/6/4 113/2/4
f 113/2/4 137/1/4 136/5/4
f 139/7/5 109/135/5 110/134/5
f 110/134/5 138/1/5 139/7/5
f 138/81/6 110/83/6 111/84/6
f 111/84/6 135/82/6 138/81/6
f 140/80/3 130/79/3 109/78/3
f 109/78/3 139/77/3 140/80/3
f 142/1/4 114/2/4 115/3/4
f 115/3/4 141/4/4 142/1/4
f 137/73/6 113/74/6 114/76/6
f 114/76/6 142/38/6 137/73/6
f 143/65/5 129/64/5 130/8/5
f 130/8/5 140/7/5 143/65/5
f 144/136/3 128/137/3 129/79/3
f 129/79/3 143/80/3 144/136/3
f 85/11/4 81/75/4 116/10/4
f 116/10/4 145/9/4 85/11/4
f 141/38/6 115/76/6 81/48/6
f 81/48/6 85/47/6 141/38/6
f 147/22/3 122/60/3 123/59/3
f 123/59/3 146/57/3 147/22/3
f 148/87/4 121/89/4 122/59/4
f 122/59/4 147/57/4 148/87/4
f 150/132/5 125/133/5 126/74/5
f 126/74/5 149/73/5 150/132/5
f 149/82/6 126/84/6 127/139/6
f 127/139/6 151/138/6 149/82/6
f 152/57/3 124/59/3 125/79/3
f 125/79/3 150/80/3 152/57/3
f 146/57/4 123/59/4 124/141/4
f 124/141/4 152/140/4 146/57/4
f 151/73/5 127/74/5 128/71/5
f 128/71/5 144/65/5 151/73/5
f 132/21/3 120/20/3 121/60/3
f 121/60/3 148/22/3 132/21/3
f 145/47/6 116/48/6 117/43/6
f 117/43/6 134/69/6 145/47/6
f 82/4/1 153/3/1 105/10/1
f 105/10/1 114/9/1 82/4/1
f 155/6/2 87/5/2 154/7/2
f 154/7/2 107/8/2 155/6/2
f 87/4/3 82/3/3 114/68/3
f 114/68/3 154/142/3 87/4/3
f 154/142/5 114/68/5 105/58/5
f 105/58/5 107/56/5 154/142/5
f 155/65/4 153/64/4 82/8/4
f 82/8/4 87/7/4 155/65/4
f 107/7/6 105/8/6 153/6/6
f 153/6/6 155/5/6 107/7/6

