# Blender v2.83.4 OBJ File: 'pistola.blend'
# www.blender.org
mtllib pistola.mtl
o Cube_Cube.001
v -0.032126 -0.001557 0.005744
v -0.032126 0.022257 0.005744
v -0.032126 -0.001557 -0.005744
v -0.032126 0.022257 -0.005744
v 0.049937 -0.001557 0.005744
v 0.049937 0.022257 0.005744
v 0.049937 -0.001557 -0.005744
v 0.049937 0.022257 -0.005744
v -0.019574 -0.001557 -0.005744
v -0.019574 0.022257 -0.005744
v -0.019574 -0.001557 0.005744
v -0.019574 0.022257 0.005744
v -0.008434 0.022257 -0.005744
v -0.008434 -0.001557 0.005744
v -0.008434 -0.001557 -0.005744
v -0.008434 0.022257 0.005744
v 0.032329 0.022257 -0.005744
v 0.032329 -0.001557 0.005744
v 0.032329 -0.001557 -0.005744
v 0.032329 0.022257 0.005744
v 0.044068 0.022257 -0.005744
v 0.044068 -0.001557 0.005744
v 0.044068 -0.001557 -0.005744
v 0.044068 0.022257 0.005744
v -0.019574 0.028756 -0.005744
v -0.019574 0.028756 0.005744
v -0.008434 0.028756 -0.005744
v -0.008434 0.028756 0.005744
v 0.032329 0.028515 -0.005744
v 0.032329 0.028515 0.005744
v 0.044068 0.028515 -0.005744
v 0.044068 0.028515 0.005744
v -0.025873 -0.009576 0.005815
v -0.025873 -0.003657 0.005815
v -0.025873 -0.009576 -0.005815
v -0.025873 -0.003657 -0.005815
v 0.011526 -0.009576 0.005815
v 0.011526 -0.003657 0.005815
v 0.011526 -0.009576 -0.005815
v 0.011526 -0.003657 -0.005815
v -0.025873 -0.014730 0.005815
v -0.025873 -0.014730 -0.005815
v 0.011526 -0.014730 0.005815
v 0.011526 -0.014730 -0.005815
v -0.001452 -0.009576 -0.005815
v -0.001452 -0.003657 -0.005815
v -0.001452 -0.009576 0.005815
v -0.001452 -0.003657 0.005815
v -0.001452 -0.014730 -0.005815
v -0.001452 -0.014730 0.005815
v -0.032699 -0.009576 0.005815
v -0.032699 -0.009576 -0.005815
v -0.032699 -0.014730 0.005815
v -0.032699 -0.014730 -0.005815
v -0.025873 -0.027823 0.005815
v -0.025873 -0.027823 -0.005815
v -0.001452 -0.027823 -0.005815
v -0.001452 -0.027823 0.005815
v -0.032699 -0.027823 0.005815
v -0.032699 -0.027823 -0.005815
vt 0.375000 0.000000
vt 0.625000 0.000000
vt 0.625000 0.250000
vt 0.375000 0.250000
vt 0.375000 0.482119
vt 0.625000 0.482119
vt 0.625000 0.500000
vt 0.375000 0.500000
vt 0.625000 0.750000
vt 0.375000 0.750000
vt 0.375000 0.961029
vt 0.625000 0.961029
vt 0.625000 1.000000
vt 0.375000 1.000000
vt 0.357119 0.500000
vt 0.357119 0.750000
vt 0.836029 0.500000
vt 0.875000 0.500000
vt 0.875000 0.750000
vt 0.836029 0.750000
vt 0.836029 0.750000
vt 0.836029 0.500000
vt 0.125000 0.500000
vt 0.163971 0.500000
vt 0.163971 0.750000
vt 0.125000 0.750000
vt 0.375000 0.927826
vt 0.625000 0.927825
vt 0.625000 0.288971
vt 0.375000 0.288971
vt 0.375000 0.803642
vt 0.625000 0.803642
vt 0.678642 0.500000
vt 0.802826 0.500000
vt 0.802826 0.750000
vt 0.678642 0.750000
vt 0.197175 0.500000
vt 0.197175 0.750000
vt 0.625000 0.322175
vt 0.375000 0.322175
vt 0.625000 0.446358
vt 0.625000 0.446358
vt 0.625000 0.482119
vt 0.375000 0.767880
vt 0.625000 0.767880
vt 0.321358 0.500000
vt 0.321358 0.750000
vt 0.375000 0.446358
vt 0.642881 0.500000
vt 0.642881 0.750000
vt 0.802826 0.500000
vt 0.802826 0.750000
vt 0.625000 0.927825
vt 0.625000 0.961029
vt 0.625000 0.288971
vt 0.625000 0.322175
vt 0.642881 0.500000
vt 0.678642 0.500000
vt 0.678642 0.750000
vt 0.642881 0.750000
vt 0.625000 0.767880
vt 0.625000 0.803642
vt 0.375000 0.000000
vt 0.625000 0.000000
vt 0.625000 0.250000
vt 0.375000 0.250000
vt 0.375000 0.413246
vt 0.625000 0.413246
vt 0.625000 0.500000
vt 0.375000 0.500000
vt 0.625000 0.750000
vt 0.375000 0.750000
vt 0.375000 0.836754
vt 0.625000 0.836754
vt 0.625000 1.000000
vt 0.375000 1.000000
vt 0.375000 0.250000
vt 0.375000 0.000000
vt 0.711754 0.500000
vt 0.875000 0.500000
vt 0.875000 0.750000
vt 0.711754 0.750000
vt 0.288246 0.500000
vt 0.375000 0.500000
vt 0.375000 0.750000
vt 0.288246 0.750000
vt 0.375000 1.000000
vt 0.375000 0.836754
vt 0.375000 0.413246
vt 0.375000 0.250000
vt 0.375000 0.250000
vt 0.375000 0.250000
vt 0.375000 0.250000
vt 0.375000 0.000000
vt 0.375000 0.000000
vt 0.375000 1.000000
vt 0.375000 1.000000
vt 0.125000 0.500000
vt 0.288246 0.500000
vt 0.288246 0.750000
vt 0.125000 0.750000
vt 0.125000 0.750000
vt 0.125000 0.500000
vt 0.375000 1.000000
vt 0.375000 0.836754
vt 0.375000 1.000000
vt 0.375000 0.413246
vn -1.0000 0.0000 0.0000
vn 0.0000 0.0000 -1.0000
vn 1.0000 0.0000 0.0000
vn 0.0000 0.0000 1.0000
vn 0.0000 -1.0000 0.0000
vn 0.0000 1.0000 0.0000
usemtl None
s off
f 1/1/1 2/2/1 4/3/1 3/4/1
f 23/5/2 21/6/2 8/7/2 7/8/2
f 7/8/3 8/7/3 6/9/3 5/10/3
f 11/11/4 12/12/4 2/13/4 1/14/4
f 23/15/5 7/8/5 5/10/5 22/16/5
f 10/17/6 4/18/6 2/19/6 12/20/6
f 10/17/1 12/20/1 26/21/1 25/22/1
f 3/23/5 9/24/5 11/25/5 1/26/5
f 14/27/4 16/28/4 12/12/4 11/11/4
f 3/4/2 4/3/2 10/29/2 9/30/2
f 18/31/4 20/32/4 16/28/4 14/27/4
f 17/33/6 13/34/6 16/35/6 20/36/6
f 9/24/5 15/37/5 14/38/5 11/25/5
f 9/30/2 10/29/2 13/39/2 15/40/2
f 21/6/2 17/41/2 29/42/2 31/43/2
f 22/44/4 24/45/4 20/32/4 18/31/4
f 15/37/5 19/46/5 18/47/5 14/38/5
f 15/40/2 13/39/2 17/41/2 19/48/2
f 5/10/4 6/9/4 24/45/4 22/44/4
f 8/7/6 21/49/6 24/50/6 6/9/6
f 19/46/5 23/15/5 22/16/5 18/47/5
f 19/48/2 17/41/2 21/6/2 23/5/2
f 27/51/6 25/22/6 26/21/6 28/52/6
f 16/35/3 13/34/3 27/51/3 28/52/3
f 12/12/4 16/28/4 28/53/4 26/54/4
f 13/39/2 10/29/2 25/55/2 27/56/2
f 31/57/6 29/58/6 30/59/6 32/60/6
f 17/33/1 20/36/1 30/59/1 29/58/1
f 24/50/3 21/49/3 31/57/3 32/60/3
f 20/32/4 24/45/4 32/61/4 30/62/4
f 33/63/1 34/64/1 36/65/1 35/66/1
f 45/67/2 46/68/2 40/69/2 39/70/2
f 39/70/3 40/69/3 38/71/3 37/72/3
f 47/73/4 48/74/4 34/75/4 33/76/4
f 33/63/6 35/66/6 52/77/6 51/78/6
f 46/79/6 36/80/6 34/81/6 48/82/6
f 49/83/5 44/84/5 43/85/5 50/86/5
f 39/70/3 37/72/3 43/85/3 44/84/3
f 47/73/4 33/76/4 41/87/4 50/88/4
f 45/67/2 39/70/2 44/84/2 49/89/2
f 35/66/2 45/67/2 49/89/2 42/90/2
f 37/72/4 47/73/4 50/88/4 43/85/4
f 54/91/2 42/90/2 56/92/2 60/93/2
f 40/69/6 46/79/6 48/82/6 38/71/6
f 37/72/4 38/71/4 48/74/4 47/73/4
f 35/66/2 36/65/2 46/68/2 45/67/2
f 51/78/1 52/77/1 54/91/1 53/94/1
f 35/66/2 42/90/2 54/91/2 52/77/2
f 53/94/1 54/91/1 60/93/1 59/95/1
f 41/87/4 33/76/4 51/96/4 53/97/4
f 56/98/5 57/99/5 58/100/5 55/101/5
f 56/98/5 55/101/5 59/102/5 60/103/5
f 50/88/4 41/87/4 55/104/4 58/105/4
f 41/87/4 53/97/4 59/106/4 55/104/4
f 49/83/3 50/86/3 58/100/3 57/99/3
f 42/90/2 49/89/2 57/107/2 56/92/2
