# Blender v2.83.4 OBJ File: 'glass.blend'
# www.blender.org
mtllib uzi.mtl
o gun_Cube
v 2.759181 4.290549 2.062095
v 2.759181 3.066435 2.062095
v 2.759181 4.290549 2.773489
v 2.759181 3.066435 2.773489
v -1.386686 4.290549 2.062095
v -1.386686 3.066435 2.062095
v -1.386686 4.290549 2.773489
v -1.386686 3.066435 2.773489
v -1.096765 4.290549 2.773489
v -1.096765 4.290549 2.062095
v -0.356084 3.066435 2.773489
v -0.053050 4.290549 2.062095
v -0.356084 3.066435 2.062095
v -0.053050 4.290549 2.773489
v -0.053050 4.636873 2.601655
v -1.096765 4.636873 2.601655
v -1.096765 4.636873 2.233929
v -0.053050 4.636873 2.233929
v 2.424363 3.066435 2.773489
v 2.428072 4.290549 2.062095
v 2.424363 3.066435 2.062095
v 2.428072 4.290549 2.773489
v 1.786818 3.066435 2.062095
v 1.790218 4.290549 2.773489
v 1.786818 3.066435 2.773489
v 1.790218 4.290549 2.062095
v 1.344147 3.066435 2.062095
v 1.344147 3.066435 2.773489
v 2.428072 4.651303 2.343262
v 2.428072 4.651303 2.492321
v 1.786818 1.623420 2.600537
v 2.424363 1.623420 2.600537
v 2.424363 1.623420 2.235047
v 1.786818 1.623420 2.235047
v 1.786818 2.849983 2.235047
v 1.786818 2.849983 2.600537
v 2.424363 2.849983 2.235047
v 2.424363 2.849983 2.600537
v 1.575042 1.623420 2.312903
v 1.575042 1.623420 2.522680
v 1.575042 2.849983 2.312903
v 1.575042 2.849983 2.522680
v 2.759181 3.867145 2.228589
v 2.759181 3.489840 2.228589
v 2.759181 3.867145 2.606995
v 2.759181 3.489840 2.606995
v 3.100056 3.867145 2.228589
v 3.100056 3.489840 2.228589
v 3.100056 3.867145 2.606995
v 3.100056 3.489840 2.606995
v 0.505421 3.066435 2.062095
v 0.505421 3.066435 2.773489
v 0.505421 0.916342 2.062095
v -0.356084 0.916342 2.062095
v -0.356084 0.916342 2.773489
v 0.505421 0.916342 2.773489
v 0.505421 2.249400 2.773489
v 0.505421 2.249400 2.062095
v 0.912265 3.066435 2.773489
v 0.912265 3.066435 2.062095
v 0.505421 2.742439 2.062095
v 0.505421 2.742439 2.773489
v 1.341191 2.680809 2.773489
v 0.996046 2.249400 2.773489
v 0.996046 2.249400 2.062095
v 1.341191 2.680809 2.062095
v 0.996046 2.680809 2.062095
v 0.996046 2.680809 2.773489
v 0.909465 2.742439 2.062095
v 0.909465 2.742439 2.773489
v 1.786818 2.958209 2.600537
v 2.424363 2.958209 2.600537
v 1.786818 2.958209 2.235047
v 2.424363 2.958209 2.235047
v 2.428072 4.344200 2.229319
v 2.428072 4.344200 2.606264
v 1.790218 4.344200 2.229319
v 1.790218 4.344200 2.606264
v -1.096765 4.350828 2.601655
v -1.096765 4.350828 2.233929
v -0.053050 4.350828 2.601655
v -0.053050 4.350828 2.233929
v -1.096765 4.482775 2.356504
v -1.096765 4.482775 2.479079
v -0.053050 4.482775 2.356504
v -0.053050 4.482775 2.479079
v 2.428072 4.522088 2.229319
v 1.790218 4.522088 2.229319
v 1.790218 4.522088 2.606264
v 2.428072 4.522088 2.606264
v 2.428072 4.557981 2.343262
v 1.790218 4.557981 2.343262
v 1.790218 4.557981 2.492321
v 2.428072 4.557981 2.492321
v 2.257099 4.290549 2.773489
v 2.257099 4.651303 2.492321
v 2.257099 4.290549 2.062095
v 2.257099 4.344200 2.606264
v 2.257099 4.522088 2.606264
v 2.257099 4.557981 2.492321
v 2.257099 4.651303 2.343262
v 2.257099 4.344200 2.229319
v 2.257099 4.522088 2.229319
v 2.257099 4.557981 2.343262
vt 0.308463 0.322314
vt 0.273218 0.322314
vt 0.273218 0.133629
vt 0.308463 0.133629
vt 0.022107 0.568906
vt 0.022107 0.843670
vt 0.095293 0.843670
vt 0.095293 0.568906
vt 1.970682 0.667316
vt 2.003443 0.667316
vt 2.003443 0.667316
vt 1.970682 0.667316
vt 0.692579 0.861547
vt 0.692579 0.607656
vt 0.708406 0.695473
vt 0.708406 0.773730
vt 0.077615 0.857200
vt 0.039784 0.857200
vt 0.039784 0.921405
vt 0.052394 0.886817
vt 0.065005 0.886817
vt 0.077615 0.921405
vt 0.659420 0.322314
vt 0.435342 0.322314
vt 0.435342 0.133629
vt 0.659420 0.133629
vt 0.435342 0.276738
vt 0.308463 0.276738
vt 0.308463 0.244227
vt 0.435342 0.244227
vt 1.626145 0.941518
vt 1.728271 0.941518
vt 1.728271 1.002585
vt 1.626145 1.002585
vt 0.039784 0.857200
vt 0.077615 0.857200
vt 0.077615 0.921405
vt 0.065005 0.886817
vt 0.052394 0.886817
vt 0.039784 0.921405
vt 2.003443 0.928649
vt 1.971044 0.928649
vt 0.777212 0.322314
vt 0.736961 0.322314
vt 0.736961 0.133629
vt 0.777212 0.133629
vt 1.908299 0.621106
vt 1.908299 0.359251
vt 1.887577 0.359251
vt 1.887577 0.621106
vt 0.605193 0.322314
vt 0.659007 0.322314
vt 0.659007 0.133629
vt 0.605193 0.133629
vt 0.051032 0.903697
vt 0.066367 0.903697
vt 0.066367 0.924644
vt 0.051032 0.924644
vt 1.822725 0.667316
vt 1.864984 0.667316
vt 1.864984 0.667316
vt 1.822725 0.667316
vt 0.716176 0.247739
vt 0.659420 0.247739
vt 0.659420 0.208204
vt 0.716176 0.208204
vt 0.736961 0.247739
vt 0.716176 0.247739
vt 0.716176 0.208204
vt 0.736961 0.208204
vt 0.659007 0.276442
vt 0.736510 0.276442
vt 0.736510 0.179502
vt 0.659007 0.179502
vt 1.970682 0.621106
vt 1.970682 0.359251
vt 1.970682 0.621106
vt 1.908299 0.621106
vt 1.908299 0.359251
vt 1.970682 0.359251
vt 0.077500 0.520321
vt 0.039899 0.520321
vt 0.039899 0.245008
vt 0.077500 0.245008
vt 0.077500 0.544614
vt 0.039899 0.544614
vt 1.970682 0.644211
vt 1.908299 0.644211
vt 1.908299 0.644211
vt 1.970682 0.644211
vt 0.039899 0.544614
vt 0.077500 0.544614
vt 0.077500 0.520321
vt 0.039899 0.520321
vt 0.047909 0.520321
vt 0.069490 0.520321
vt 0.069490 0.245008
vt 0.047909 0.245008
vt 1.887577 0.621106
vt 1.887577 0.359251
vt 0.633262 0.200152
vt 0.633262 0.255792
vt 0.777212 0.278155
vt 0.777212 0.177789
vt 0.818651 0.177789
vt 0.818651 0.278155
vt 0.760205 0.607656
vt 0.760205 0.861547
vt 0.744378 0.773730
vt 0.744378 0.695473
vt 0.022107 0.568906
vt 0.095293 0.568906
vt 0.078164 0.663943
vt 0.039235 0.663943
vt 0.095293 0.843670
vt 0.022107 0.843670
vt 0.039235 0.748633
vt 0.078164 0.748633
vt 0.078164 0.663943
vt 0.078164 0.748633
vt 0.039235 0.748633
vt 0.039235 0.663943
vt 2.003443 0.757707
vt 2.003443 0.838257
vt 2.036797 0.838257
vt 2.036797 0.757707
vt 0.777212 0.177789
vt 0.777212 0.278155
vt 0.818651 0.278155
vt 0.818651 0.177789
vt 2.003443 0.838257
vt 2.003443 0.757707
vt 2.036797 0.757707
vt 2.036797 0.838257
vt 0.095293 0.385515
vt 0.022107 0.385515
vt 0.022107 0.086298
vt 0.095293 0.086298
vt 1.728271 0.928649
vt 1.626145 0.928649
vt 1.597777 0.928649
vt 1.597777 0.667316
vt 1.698619 0.667316
vt 1.782916 0.667316
vt 1.908299 0.667316
vt 1.954315 0.928649
vt 1.908631 0.928649
vt 0.398504 0.322314
vt 0.503233 0.322314
vt 0.503233 0.133629
vt 0.398504 0.133629
vt 1.782916 0.492889
vt 1.782916 0.208299
vt 1.698619 0.208299
vt 1.698619 0.667316
vt 1.782916 0.667316
vt 1.782916 0.598147
vt 1.822451 0.598147
vt 1.864695 0.584989
vt 1.830923 0.584989
vt 1.830923 0.492889
vt 0.273218 0.322314
vt 0.398504 0.322314
vt 0.398504 0.133629
vt 0.273218 0.133629
vt 0.095293 0.496182
vt 0.022107 0.496182
vt 0.022107 0.568906
vt 0.095293 0.568906
vt 0.503233 0.322314
vt 0.552691 0.322314
vt 0.552691 0.133629
vt 0.503233 0.133629
vt 0.095293 0.568906
vt 0.022107 0.568906
vt 0.022107 0.496182
vt 0.095293 0.496182
vt 0.022107 0.568906
vt 0.095293 0.568906
vt 0.095293 0.482349
vt 0.022107 0.482349
vt 0.095293 0.482349
vt 0.022107 0.482349
vt 0.022107 0.385515
vt 0.095293 0.385515
vt 0.503233 0.322314
vt 0.562876 0.322314
vt 0.562876 0.133629
vt 0.503233 0.133629
vt 0.095293 0.086298
vt 0.022107 0.086298
vt 0.022107 0.568906
vt 0.095293 0.568906
vt 0.562876 0.133629
vt 0.562876 0.322314
vt 0.604834 0.322314
vt 0.604834 0.133629
vt 0.503233 0.133629
vt 0.552351 0.133629
vt 0.552351 0.322314
vt 0.503233 0.322314
vt 1.954315 0.985742
vt 1.971044 0.985742
vt 1.971044 1.005665
vt 1.954315 1.005665
vt 1.698619 0.208299
vt 1.782916 0.208299
vt 1.782916 0.492889
vt 1.830923 0.492889
vt 1.830923 0.584990
vt 1.864695 0.584990
vt 1.822451 0.598147
vt 1.782916 0.598147
vt 0.022107 0.568906
vt 0.095293 0.568906
vt 1.908299 0.667316
vt 0.095293 0.568906
vt 0.022107 0.568906
vt 1.954315 0.928649
vt 1.908631 0.928649
vt 1.908631 0.940103
vt 1.954315 0.940103
vt 1.971044 0.928649
vt 1.971044 0.940103
vt 0.095293 0.843670
vt 0.022107 0.843670
vt 0.039310 0.855712
vt 0.078089 0.855712
vt 0.022107 0.843670
vt 0.095293 0.843670
vt 0.078089 0.855712
vt 0.039310 0.855712
vt 1.728271 0.941518
vt 1.728271 0.928649
vt 1.626145 0.928649
vt 1.626145 0.941518
vt 2.003443 0.928649
vt 1.597777 0.667316
vt 1.597777 0.928649
vt 1.728271 1.002585
vt 1.626145 1.002585
vt 0.022107 0.843670
vt 0.095293 0.843670
vt 0.095293 0.843670
vt 0.022107 0.843670
vt 0.435342 0.211716
vt 0.308463 0.211716
vt 0.308463 0.179205
vt 0.435342 0.179205
vt 1.954315 0.978079
vt 1.971044 0.978079
vt 1.971044 0.940103
vt 1.954315 0.940103
vt 1.954315 0.978079
vt 1.971044 0.978079
vt 0.039310 0.895641
vt 0.078089 0.895641
vt 0.078089 0.895641
vt 0.039310 0.895641
vt 1.954315 0.985742
vt 1.971044 0.985742
vt 1.908631 0.978079
vt 1.908631 0.978079
vt 1.908631 0.985742
vt 1.908631 0.985742
vt 0.051032 0.903697
vt 0.051032 0.924644
vt 0.066367 0.924644
vt 0.066367 0.903697
vt 1.908631 0.940103
vt 1.954315 1.005665
vt 1.971044 1.005665
vn 0.0000 1.0000 0.0000
vn -1.0000 0.0000 0.0000
vn 0.0000 -1.0000 0.0000
vn 1.0000 0.0000 0.0000
vn 0.0000 0.6225 0.7826
vn 0.0000 0.0000 1.0000
vn -0.3451 0.0000 -0.9386
vn 0.0000 0.0000 -1.0000
vn -0.3451 0.0000 0.9386
vn -1.0000 0.0086 0.0000
vn -1.0000 0.0077 0.0000
vn 0.0000 -0.8477 -0.5305
vn 0.0000 -0.8477 0.5305
vn 0.0000 0.9522 -0.3055
vn 0.0000 0.9436 -0.3310
vn 0.0000 0.9436 0.3310
vn 0.0000 0.6225 -0.7826
vn 0.0000 0.9538 0.3005
vn 0.0000 0.9522 0.3055
vn 0.0000 0.9538 -0.3005
usemtl Material
s off
f 10/1/1 5/2/1 7/3/1 9/4/1
f 8/5/2 7/6/2 5/7/2 6/8/2
f 21/9/3 2/10/3 4/11/3 19/12/3
f 3/13/4 4/14/4 46/15/4 45/16/4
f 80/17/2 79/18/2 16/19/2 84/20/2 83/21/2 17/22/2
f 26/23/1 12/24/1 14/25/1 24/26/1
f 18/27/5 17/28/5 83/29/5 85/30/5
f 79/31/6 81/32/6 15/33/6 16/34/6
f 81/35/4 82/36/4 18/37/4 85/38/4 86/39/4 15/40/4
f 4/11/6 3/41/6 22/42/6 19/12/6
f 1/43/1 20/44/1 22/45/1 3/46/1
f 35/47/7 34/48/7 39/49/7 41/50/7
f 27/51/3 23/52/3 25/53/3 28/54/3
f 94/55/4 91/56/4 29/57/4 30/58/4
f 60/59/3 27/60/3 28/61/3 59/62/3
f 104/63/1 92/64/1 93/65/1 100/66/1
f 29/67/1 101/68/1 96/69/1 30/70/1
f 34/71/3 33/72/3 32/73/3 31/74/3
f 35/47/8 37/75/8 33/76/8 34/48/8
f 38/77/6 36/78/6 31/79/6 32/80/6
f 37/81/4 38/82/4 32/83/4 33/84/4
f 74/85/4 72/86/4 38/82/4 37/81/4
f 72/87/6 71/88/6 36/78/6 38/77/6
f 73/89/8 74/90/8 37/75/8 35/47/8
f 71/91/2 73/92/2 35/93/2 36/94/2
f 42/95/2 41/96/2 39/97/2 40/98/2
f 36/78/1 35/47/1 41/50/1 42/99/1
f 31/79/9 36/78/9 42/99/9 40/100/9
f 34/71/3 31/74/3 40/101/3 39/102/3
f 43/103/1 45/104/1 49/105/1 47/106/1
f 2/107/4 1/108/4 43/109/4 44/110/4
f 4/111/4 2/112/4 44/113/4 46/114/4
f 1/115/4 3/116/4 45/117/4 43/118/4
f 48/119/4 47/120/4 49/121/4 50/122/4
f 44/123/8 43/124/8 47/125/8 48/126/8
f 46/127/3 44/128/3 48/129/3 50/130/3
f 45/131/6 46/132/6 50/133/6 49/134/6
f 58/135/4 57/136/4 56/137/4 53/138/4
f 14/139/6 9/140/6 7/141/6 8/142/6 11/143/6 52/144/6 59/62/6 28/61/6 25/145/6 19/12/6 22/42/6 95/146/6 24/147/6
f 54/148/3 53/149/3 56/150/3 55/151/3
f 58/152/8 53/153/8 54/154/8 13/155/8 51/156/8 61/157/8 69/158/8 60/59/8 27/60/8 66/159/8 67/160/8 65/161/8
f 6/162/3 13/163/3 11/164/3 8/165/3
f 69/166/10 70/167/10 59/168/10 60/169/10
f 51/170/3 60/171/3 59/172/3 52/173/3
f 51/174/4 52/175/4 62/176/4 61/177/4
f 28/178/11 27/179/11 66/180/11 63/181/11
f 67/182/4 68/183/4 64/184/4 65/185/4
f 58/186/3 65/187/3 64/188/3 57/189/3
f 54/190/2 55/191/2 11/192/2 13/193/2
f 68/194/3 67/195/3 66/196/3 63/197/3
f 62/198/1 70/199/1 69/200/1 61/201/1
f 100/202/6 94/203/6 30/204/6 96/205/6
f 55/206/6 56/207/6 57/208/6 64/209/6 68/210/6 63/211/6 28/61/6 59/62/6 70/212/6 62/213/6 52/144/6 11/143/6
f 25/214/2 23/215/2 73/92/2 71/91/2
f 23/216/12 21/9/12 74/90/12 73/89/12
f 19/12/13 25/145/13 71/88/13 72/87/13
f 21/217/4 19/218/4 72/86/4 74/85/4
f 97/219/14 26/220/14 77/221/14 102/222/14
f 20/223/14 97/219/14 102/222/14 75/224/14
f 26/225/2 24/226/2 78/227/2 77/228/2
f 22/229/4 20/230/4 75/231/4 76/232/4
f 82/233/15 12/234/15 10/235/15 80/236/15
f 20/223/8 1/237/8 2/10/8 21/9/8 23/216/8 27/60/8 60/59/8 51/156/8 13/155/8 6/238/8 5/239/8 10/235/8 12/234/8 26/220/8 97/219/8
f 18/240/8 82/233/8 80/236/8 17/241/8
f 14/242/4 12/243/4 82/36/4 81/35/4
f 9/140/16 14/139/16 81/32/16 79/31/16
f 10/244/2 9/245/2 79/18/2 80/17/2
f 86/246/17 84/247/17 16/248/17 15/249/17
f 85/30/1 83/29/1 84/247/1 86/246/1
f 99/250/18 90/251/18 94/203/18 100/202/18
f 95/146/19 22/42/19 76/252/19 98/253/19
f 102/222/8 103/254/8 87/255/8 75/224/8
f 77/228/2 78/227/2 89/256/2 88/257/2
f 76/232/4 75/231/4 87/258/4 90/259/4
f 98/253/6 76/252/6 90/251/6 99/250/6
f 103/254/20 104/260/20 91/261/20 87/255/20
f 88/262/2 89/263/2 93/264/2 92/265/2
f 90/259/4 87/258/4 91/56/4 94/55/4
f 100/266/2 96/267/2 101/268/2 104/269/2
f 24/147/19 95/146/19 98/253/19 78/270/19
f 77/221/8 88/262/8 103/254/8 102/222/8
f 78/270/6 98/253/6 99/250/6 89/263/6
f 88/262/20 92/265/20 104/260/20 103/254/20
f 89/263/18 99/250/18 100/202/18 93/264/18
f 104/260/8 101/271/8 29/272/8 91/261/8
